<svg width="24" height="23" viewBox="0 0 24 23" fill="none" xmlns="http://www.w3.org/2000/svg">
<path d="M23.8262 21.9165C21.9734 18.7149 19.0648 16.4684 15.6851 15.5157C17.3283 14.6804 18.6422 13.3161 19.4151 11.6428C20.188 9.96938 20.3748 8.08446 19.9453 6.29194C19.5159 4.49942 18.4952 2.90377 17.048 1.76228C15.6007 0.620793 13.8112 0 11.9679 0C10.1247 0 8.33517 0.620793 6.88791 1.76228C5.44065 2.90377 4.42001 4.49942 3.99057 6.29194C3.56112 8.08446 3.7479 9.96938 4.52079 11.6428C5.29368 13.3161 6.60762 14.6804 8.25076 15.5157C4.87107 16.4673 1.96248 18.7137 0.109747 21.9165C0.0588729 21.9965 0.024713 22.086 0.00932226 22.1796C-0.00606851 22.2731 -0.00237201 22.3689 0.020189 22.461C0.04275 22.5531 0.0837093 22.6397 0.140603 22.7155C0.197497 22.7914 0.26915 22.855 0.35125 22.9024C0.433351 22.9499 0.524202 22.9803 0.61834 22.9917C0.712478 23.0031 0.807956 22.9954 0.89903 22.969C0.990105 22.9426 1.07489 22.898 1.1483 22.8379C1.2217 22.7779 1.2822 22.7036 1.32615 22.6196C3.57732 18.7302 7.55467 16.4087 11.9679 16.4087C16.3812 16.4087 20.3586 18.7302 22.6097 22.6196C22.6537 22.7036 22.7142 22.7779 22.7876 22.8379C22.861 22.898 22.9458 22.9426 23.0369 22.969C23.1279 22.9954 23.2234 23.0031 23.3176 22.9917C23.4117 22.9803 23.5025 22.9499 23.5846 22.9024C23.6668 22.855 23.7384 22.7914 23.7953 22.7155C23.8522 22.6397 23.8932 22.5531 23.9157 22.461C23.9383 22.3689 23.942 22.2731 23.9266 22.1796C23.9112 22.086 23.877 21.9965 23.8262 21.9165ZM5.17108 8.20555C5.17108 6.86125 5.56971 5.54714 6.31656 4.4294C7.06341 3.31166 8.12493 2.44049 9.3669 1.92605C10.6089 1.41161 11.9755 1.27701 13.294 1.53927C14.6124 1.80153 15.8235 2.44887 16.7741 3.39943C17.7246 4.34999 18.372 5.56108 18.6342 6.87954C18.8965 8.19801 18.7619 9.56463 18.2474 10.8066C17.733 12.0486 16.8618 13.1101 15.7441 13.8569C14.6264 14.6038 13.3122 15.0024 11.9679 15.0024C10.166 15.0003 8.43842 14.2835 7.16423 13.0093C5.89004 11.7351 5.17325 10.0075 5.17108 8.20555Z" fill="#080808"/>
</svg>
