<svg width="210" height="18" viewBox="0 0 210 18" fill="none" xmlns="http://www.w3.org/2000/svg">
<path d="M4.6875 14H1.32102V3.09091H4.83665C5.89489 3.09091 6.80043 3.3093 7.55327 3.74609C8.30611 4.17933 8.88317 4.80256 9.28445 5.61577C9.68572 6.42543 9.88636 7.39489 9.88636 8.52415C9.88636 9.66051 9.68395 10.6388 9.27912 11.4592C8.87429 12.2759 8.2848 12.9045 7.51065 13.3448C6.73651 13.7816 5.79545 14 4.6875 14ZM2.64205 12.8281H4.60227C5.50426 12.8281 6.25178 12.6541 6.84482 12.3061C7.43786 11.9581 7.87997 11.4627 8.17116 10.82C8.46236 10.1772 8.60795 9.41193 8.60795 8.52415C8.60795 7.64347 8.46413 6.8853 8.17649 6.24964C7.88885 5.61044 7.45916 5.12038 6.88743 4.77947C6.3157 4.43501 5.60369 4.26278 4.75142 4.26278H2.64205V12.8281ZM15.2557 14.1705C14.517 14.1705 13.869 13.9947 13.3114 13.6431C12.7575 13.2915 12.3242 12.7997 12.0117 12.1676C11.7028 11.5355 11.5483 10.7969 11.5483 9.9517C11.5483 9.09943 11.7028 8.35547 12.0117 7.71982C12.3242 7.08416 12.7575 6.59055 13.3114 6.23899C13.869 5.88743 14.517 5.71165 15.2557 5.71165C15.9943 5.71165 16.6406 5.88743 17.1946 6.23899C17.7521 6.59055 18.1854 7.08416 18.4943 7.71982C18.8068 8.35547 18.9631 9.09943 18.9631 9.9517C18.9631 10.7969 18.8068 11.5355 18.4943 12.1676C18.1854 12.7997 17.7521 13.2915 17.1946 13.6431C16.6406 13.9947 15.9943 14.1705 15.2557 14.1705ZM15.2557 13.0412C15.8168 13.0412 16.2784 12.8974 16.6406 12.6097C17.0028 12.3221 17.271 11.9439 17.445 11.4751C17.619 11.0064 17.706 10.4986 17.706 9.9517C17.706 9.40483 17.619 8.89524 17.445 8.42294C17.271 7.95064 17.0028 7.56889 16.6406 7.2777C16.2784 6.98651 15.8168 6.84091 15.2557 6.84091C14.6946 6.84091 14.233 6.98651 13.8707 7.2777C13.5085 7.56889 13.2404 7.95064 13.0664 8.42294C12.8924 8.89524 12.8054 9.40483 12.8054 9.9517C12.8054 10.4986 12.8924 11.0064 13.0664 11.4751C13.2404 11.9439 13.5085 12.3221 13.8707 12.6097C14.233 12.8974 14.6946 13.0412 15.2557 13.0412ZM22.1391 9.07812V14H20.882V5.81818H22.0965V7.09659H22.203C22.3948 6.68111 22.686 6.3473 23.0766 6.09517C23.4672 5.83949 23.9715 5.71165 24.5894 5.71165C25.1434 5.71165 25.6281 5.82528 26.0436 6.05256C26.4591 6.27628 26.7822 6.61719 27.0131 7.07528C27.2439 7.52983 27.3593 8.10511 27.3593 8.80114V14H26.1022V8.88636C26.1022 8.24361 25.9353 7.7429 25.6015 7.38423C25.2677 7.02202 24.8096 6.84091 24.2272 6.84091C23.8259 6.84091 23.4672 6.92791 23.1512 7.10192C22.8387 7.27592 22.5919 7.52983 22.4108 7.86364C22.2297 8.19744 22.1391 8.60227 22.1391 9.07812ZM30.7644 3.09091V4.04972C30.7644 4.34091 30.7111 4.65163 30.6046 4.98189C30.5016 5.30859 30.3489 5.62642 30.1465 5.93537C29.9476 6.24077 29.7061 6.5071 29.4221 6.73438L28.7402 6.1804C28.964 5.8608 29.1575 5.52876 29.3208 5.1843C29.4877 4.83629 29.5712 4.4652 29.5712 4.07102V3.09091H30.7644ZM36.2029 5.81818V6.88352H31.9629V5.81818H36.2029ZM33.1987 3.85795H34.4558V11.6562C34.4558 12.0114 34.5073 12.2777 34.6103 12.4553C34.7168 12.6293 34.8517 12.7464 35.0151 12.8068C35.182 12.8636 35.3578 12.892 35.5424 12.892C35.6809 12.892 35.7946 12.8849 35.8833 12.8707C35.9721 12.853 36.0431 12.8388 36.0964 12.8281L36.3521 13.9574C36.2669 13.9893 36.1479 14.0213 35.9952 14.0533C35.8425 14.0888 35.649 14.1065 35.4146 14.1065C35.0595 14.1065 34.7115 14.0302 34.3706 13.8775C34.0332 13.7248 33.7527 13.4922 33.5289 13.1797C33.3088 12.8672 33.1987 12.473 33.1987 11.9972V3.85795ZM43.5698 9.07812V14H42.3127V3.09091H43.5698V7.09659H43.6763C43.8681 6.67401 44.1557 6.33842 44.5392 6.08984C44.9263 5.83771 45.4412 5.71165 46.084 5.71165C46.6415 5.71165 47.1298 5.82351 47.5488 6.04723C47.9679 6.2674 48.2928 6.60653 48.5236 7.06463C48.758 7.51918 48.8752 8.09801 48.8752 8.80114V14H47.6181V8.88636C47.6181 8.23651 47.4494 7.73402 47.112 7.37891C46.7782 7.02024 46.3148 6.84091 45.7218 6.84091C45.3098 6.84091 44.9405 6.92791 44.6138 7.10192C44.2907 7.27592 44.035 7.52983 43.8468 7.86364C43.6621 8.19744 43.5698 8.60227 43.5698 9.07812ZM53.5827 14.1918C53.0642 14.1918 52.5937 14.0941 52.1711 13.8988C51.7485 13.6999 51.4129 13.4141 51.1643 13.0412C50.9157 12.6648 50.7915 12.2102 50.7915 11.6776C50.7915 11.2088 50.8838 10.8288 51.0684 10.5376C51.2531 10.2429 51.4999 10.0121 51.8089 9.84517C52.1178 9.67827 52.4587 9.55398 52.8316 9.4723C53.208 9.38707 53.5862 9.3196 53.9662 9.26989C54.4633 9.20597 54.8664 9.15803 55.1753 9.12607C55.4878 9.09055 55.7151 9.03196 55.8572 8.95028C56.0028 8.86861 56.0756 8.72656 56.0756 8.52415V8.48153C56.0756 7.95597 55.9317 7.54759 55.6441 7.25639C55.36 6.9652 54.9285 6.8196 54.3497 6.8196C53.7496 6.8196 53.279 6.95099 52.9381 7.21378C52.5972 7.47656 52.3575 7.7571 52.219 8.0554L51.0258 7.62926C51.2389 7.1321 51.523 6.74503 51.8781 6.46804C52.2368 6.1875 52.6274 5.99219 53.05 5.8821C53.4761 5.76847 53.8952 5.71165 54.3071 5.71165C54.5699 5.71165 54.8717 5.74361 55.2126 5.80753C55.5571 5.8679 55.8891 5.99396 56.2087 6.18572C56.5319 6.37749 56.8 6.6669 57.0131 7.05398C57.2261 7.44105 57.3327 7.95952 57.3327 8.60938V14H56.0756V12.892H56.0116C55.9264 13.0696 55.7844 13.2596 55.5855 13.462C55.3866 13.6644 55.1221 13.8366 54.7918 13.9787C54.4616 14.1207 54.0585 14.1918 53.5827 14.1918ZM53.7744 13.0625C54.2716 13.0625 54.6906 12.9648 55.0315 12.7695C55.376 12.5742 55.6352 12.3221 55.8092 12.0131C55.9868 11.7042 56.0756 11.3793 56.0756 11.0384V9.88778C56.0223 9.9517 55.9051 10.0103 55.724 10.0636C55.5464 10.1133 55.3405 10.1577 55.1061 10.1967C54.8753 10.2322 54.6498 10.2642 54.4296 10.2926C54.213 10.3175 54.0372 10.3388 53.9023 10.3565C53.5756 10.3991 53.2702 10.4684 52.9861 10.5643C52.7055 10.6566 52.4782 10.7969 52.3042 10.9851C52.1338 11.1697 52.0486 11.4219 52.0486 11.7415C52.0486 12.1783 52.2101 12.5085 52.5333 12.7322C52.86 12.9524 53.2737 13.0625 53.7744 13.0625ZM66.0245 5.81818L62.9989 14H61.7205L58.695 5.81818H60.0586L62.3171 12.3381H62.4023L64.6609 5.81818H66.0245ZM70.8212 14.1705C70.0328 14.1705 69.3528 13.9964 68.7811 13.6484C68.2129 13.2969 67.7743 12.8068 67.4654 12.1783C67.16 11.5462 67.0073 10.8111 67.0073 9.97301C67.0073 9.13494 67.16 8.39631 67.4654 7.7571C67.7743 7.11435 68.204 6.61364 68.7544 6.25497C69.3084 5.89276 69.9547 5.71165 70.6934 5.71165C71.1195 5.71165 71.5403 5.78267 71.9558 5.92472C72.3713 6.06676 72.7495 6.29759 73.0904 6.61719C73.4313 6.93324 73.7029 7.35227 73.9054 7.87429C74.1078 8.39631 74.209 9.03906 74.209 9.80256V10.3352H67.9022V9.24858H72.9306C72.9306 8.78693 72.8382 8.375 72.6536 8.01278C72.4725 7.65057 72.2132 7.3647 71.8759 7.15518C71.5421 6.94567 71.1479 6.84091 70.6934 6.84091C70.1926 6.84091 69.7594 6.9652 69.3936 7.21378C69.0314 7.45881 68.7527 7.77841 68.5574 8.17258C68.362 8.56676 68.2644 8.98935 68.2644 9.44034V10.1648C68.2644 10.7827 68.3709 11.3065 68.584 11.7362C68.8006 12.1623 69.1007 12.4872 69.4842 12.7109C69.8677 12.9311 70.3134 13.0412 70.8212 13.0412C71.1515 13.0412 71.4498 12.995 71.7161 12.9027C71.986 12.8068 72.2186 12.6648 72.4139 12.4766C72.6092 12.2848 72.7601 12.0469 72.8667 11.7628L74.0811 12.1037C73.9533 12.5156 73.7385 12.8778 73.4366 13.1903C73.1348 13.4993 72.7619 13.7408 72.318 13.9148C71.8741 14.0852 71.3752 14.1705 70.8212 14.1705ZM82.7477 14.1918C82.2292 14.1918 81.7587 14.0941 81.3361 13.8988C80.9135 13.6999 80.5779 13.4141 80.3294 13.0412C80.0808 12.6648 79.9565 12.2102 79.9565 11.6776C79.9565 11.2088 80.0488 10.8288 80.2335 10.5376C80.4181 10.2429 80.665 10.0121 80.9739 9.84517C81.2828 9.67827 81.6238 9.55398 81.9966 9.4723C82.373 9.38707 82.7512 9.3196 83.1312 9.26989C83.6284 9.20597 84.0314 9.15803 84.3404 9.12607C84.6529 9.09055 84.8801 9.03196 85.0222 8.95028C85.1678 8.86861 85.2406 8.72656 85.2406 8.52415V8.48153C85.2406 7.95597 85.0968 7.54759 84.8091 7.25639C84.525 6.9652 84.0936 6.8196 83.5147 6.8196C82.9146 6.8196 82.4441 6.95099 82.1032 7.21378C81.7623 7.47656 81.5225 7.7571 81.3841 8.0554L80.1909 7.62926C80.4039 7.1321 80.688 6.74503 81.0431 6.46804C81.4018 6.1875 81.7924 5.99219 82.215 5.8821C82.6412 5.76847 83.0602 5.71165 83.4721 5.71165C83.7349 5.71165 84.0368 5.74361 84.3777 5.80753C84.7221 5.8679 85.0542 5.99396 85.3738 6.18572C85.6969 6.37749 85.965 6.6669 86.1781 7.05398C86.3912 7.44105 86.4977 7.95952 86.4977 8.60938V14H85.2406V12.892H85.1767C85.0914 13.0696 84.9494 13.2596 84.7505 13.462C84.5517 13.6644 84.2871 13.8366 83.9569 13.9787C83.6266 14.1207 83.2235 14.1918 82.7477 14.1918ZM82.9395 13.0625C83.4366 13.0625 83.8556 12.9648 84.1966 12.7695C84.541 12.5742 84.8002 12.3221 84.9743 12.0131C85.1518 11.7042 85.2406 11.3793 85.2406 11.0384V9.88778C85.1873 9.9517 85.0701 10.0103 84.889 10.0636C84.7115 10.1133 84.5055 10.1577 84.2711 10.1967C84.0403 10.2322 83.8148 10.2642 83.5946 10.2926C83.378 10.3175 83.2022 10.3388 83.0673 10.3565C82.7406 10.3991 82.4352 10.4684 82.1511 10.5643C81.8706 10.6566 81.6433 10.7969 81.4693 10.9851C81.2988 11.1697 81.2136 11.4219 81.2136 11.7415C81.2136 12.1783 81.3752 12.5085 81.6983 12.7322C82.025 12.9524 82.4387 13.0625 82.9395 13.0625ZM92.116 14.1705C91.349 14.1705 90.6885 13.9893 90.1345 13.6271C89.5805 13.2649 89.1544 12.766 88.8561 12.1303C88.5578 11.4947 88.4086 10.7685 88.4086 9.9517C88.4086 9.12074 88.5613 8.38743 88.8667 7.75178C89.1757 7.11257 89.6054 6.61364 90.1558 6.25497C90.7098 5.89276 91.3561 5.71165 92.0947 5.71165C92.67 5.71165 93.1885 5.81818 93.6501 6.03125C94.1118 6.24432 94.49 6.54261 94.7847 6.92614C95.0795 7.30966 95.2623 7.7571 95.3334 8.26847H94.0763C93.9804 7.8956 93.7673 7.56534 93.4371 7.2777C93.1104 6.98651 92.67 6.84091 92.116 6.84091C91.626 6.84091 91.1963 6.96875 90.827 7.22443C90.4612 7.47656 90.1753 7.83345 89.9694 8.2951C89.767 8.7532 89.6657 9.29119 89.6657 9.90909C89.6657 10.5412 89.7652 11.0916 89.964 11.5604C90.1665 12.0291 90.4506 12.3931 90.8163 12.6523C91.1856 12.9116 91.6189 13.0412 92.116 13.0412C92.4427 13.0412 92.7393 12.9844 93.0056 12.8707C93.2719 12.7571 93.4974 12.5938 93.6821 12.3807C93.8667 12.1676 93.9981 11.9119 94.0763 11.6136H95.3334C95.2623 12.0966 95.0866 12.5316 94.806 12.9187C94.529 13.3022 94.1615 13.6076 93.7034 13.8349C93.2488 14.0586 92.7197 14.1705 92.116 14.1705ZM100.495 14.1705C99.7279 14.1705 99.0674 13.9893 98.5134 13.6271C97.9594 13.2649 97.5333 12.766 97.235 12.1303C96.9367 11.4947 96.7876 10.7685 96.7876 9.9517C96.7876 9.12074 96.9403 8.38743 97.2456 7.75178C97.5546 7.11257 97.9843 6.61364 98.5347 6.25497C99.0887 5.89276 99.735 5.71165 100.474 5.71165C101.049 5.71165 101.567 5.81818 102.029 6.03125C102.491 6.24432 102.869 6.54261 103.164 6.92614C103.458 7.30966 103.641 7.7571 103.712 8.26847H102.455C102.359 7.8956 102.146 7.56534 101.816 7.2777C101.489 6.98651 101.049 6.84091 100.495 6.84091C100.005 6.84091 99.5752 6.96875 99.2059 7.22443C98.8401 7.47656 98.5542 7.83345 98.3483 8.2951C98.1459 8.7532 98.0447 9.29119 98.0447 9.90909C98.0447 10.5412 98.1441 11.0916 98.343 11.5604C98.5454 12.0291 98.8295 12.3931 99.1952 12.6523C99.5645 12.9116 99.9978 13.0412 100.495 13.0412C100.822 13.0412 101.118 12.9844 101.384 12.8707C101.651 12.7571 101.876 12.5938 102.061 12.3807C102.246 12.1676 102.377 11.9119 102.455 11.6136H103.712C103.641 12.0966 103.465 12.5316 103.185 12.9187C102.908 13.3022 102.54 13.6076 102.082 13.8349C101.628 14.0586 101.099 14.1705 100.495 14.1705ZM108.874 14.1705C108.135 14.1705 107.487 13.9947 106.93 13.6431C106.376 13.2915 105.942 12.7997 105.63 12.1676C105.321 11.5355 105.166 10.7969 105.166 9.9517C105.166 9.09943 105.321 8.35547 105.63 7.71982C105.942 7.08416 106.376 6.59055 106.93 6.23899C107.487 5.88743 108.135 5.71165 108.874 5.71165C109.612 5.71165 110.259 5.88743 110.813 6.23899C111.37 6.59055 111.804 7.08416 112.112 7.71982C112.425 8.35547 112.581 9.09943 112.581 9.9517C112.581 10.7969 112.425 11.5355 112.112 12.1676C111.804 12.7997 111.37 13.2915 110.813 13.6431C110.259 13.9947 109.612 14.1705 108.874 14.1705ZM108.874 13.0412C109.435 13.0412 109.897 12.8974 110.259 12.6097C110.621 12.3221 110.889 11.9439 111.063 11.4751C111.237 11.0064 111.324 10.4986 111.324 9.9517C111.324 9.40483 111.237 8.89524 111.063 8.42294C110.889 7.95064 110.621 7.56889 110.259 7.2777C109.897 6.98651 109.435 6.84091 108.874 6.84091C108.313 6.84091 107.851 6.98651 107.489 7.2777C107.127 7.56889 106.859 7.95064 106.685 8.42294C106.511 8.89524 106.424 9.40483 106.424 9.9517C106.424 10.4986 106.511 11.0064 106.685 11.4751C106.859 11.9439 107.127 12.3221 107.489 12.6097C107.851 12.8974 108.313 13.0412 108.874 13.0412ZM119.656 10.6548V5.81818H120.914V14H119.656V12.6151H119.571C119.379 13.0305 119.081 13.3839 118.676 13.6751C118.271 13.9627 117.76 14.1065 117.142 14.1065C116.631 14.1065 116.176 13.9947 115.779 13.771C115.381 13.5437 115.068 13.2028 114.841 12.7482C114.614 12.2901 114.5 11.7131 114.5 11.017V5.81818H115.757V10.9318C115.757 11.5284 115.924 12.0043 116.258 12.3594C116.595 12.7145 117.025 12.892 117.547 12.892C117.86 12.892 118.177 12.8121 118.501 12.6523C118.827 12.4925 119.101 12.2475 119.321 11.9173C119.545 11.587 119.656 11.1662 119.656 10.6548ZM124.473 9.07812V14H123.216V5.81818H124.43V7.09659H124.537C124.729 6.68111 125.02 6.3473 125.411 6.09517C125.801 5.83949 126.305 5.71165 126.923 5.71165C127.477 5.71165 127.962 5.82528 128.378 6.05256C128.793 6.27628 129.116 6.61719 129.347 7.07528C129.578 7.52983 129.693 8.10511 129.693 8.80114V14H128.436V8.88636C128.436 8.24361 128.269 7.7429 127.935 7.38423C127.602 7.02202 127.144 6.84091 126.561 6.84091C126.16 6.84091 125.801 6.92791 125.485 7.10192C125.173 7.27592 124.926 7.52983 124.745 7.86364C124.564 8.19744 124.473 8.60227 124.473 9.07812ZM135.549 5.81818V6.88352H131.309V5.81818H135.549ZM132.544 3.85795H133.801V11.6562C133.801 12.0114 133.853 12.2777 133.956 12.4553C134.063 12.6293 134.197 12.7464 134.361 12.8068C134.528 12.8636 134.703 12.892 134.888 12.892C135.027 12.892 135.14 12.8849 135.229 12.8707C135.318 12.853 135.389 12.8388 135.442 12.8281L135.698 13.9574C135.613 13.9893 135.494 14.0213 135.341 14.0533C135.188 14.0888 134.995 14.1065 134.76 14.1065C134.405 14.1065 134.057 14.0302 133.716 13.8775C133.379 13.7248 133.098 13.4922 132.875 13.1797C132.654 12.8672 132.544 12.473 132.544 11.9972V3.85795ZM143.299 10.9318V10.8679C143.306 10.1896 143.377 9.64986 143.512 9.24858C143.647 8.8473 143.839 8.52237 144.087 8.27379C144.336 8.02521 144.634 7.79616 144.982 7.58665C145.192 7.45881 145.38 7.30788 145.547 7.13388C145.714 6.95632 145.845 6.75213 145.941 6.52131C146.04 6.29048 146.09 6.0348 146.09 5.75426C146.09 5.40625 146.009 5.1044 145.845 4.84872C145.682 4.59304 145.463 4.39595 145.19 4.25746C144.917 4.11896 144.613 4.04972 144.279 4.04972C143.988 4.04972 143.707 4.11008 143.438 4.23082C143.168 4.35156 142.942 4.54155 142.761 4.80078C142.58 5.06001 142.475 5.39915 142.447 5.81818H141.104C141.133 5.21449 141.289 4.6978 141.573 4.26811C141.861 3.83842 142.239 3.50994 142.708 3.28267C143.18 3.0554 143.704 2.94176 144.279 2.94176C144.904 2.94176 145.447 3.06605 145.909 3.31463C146.374 3.56321 146.733 3.90412 146.985 4.33736C147.241 4.7706 147.369 5.2642 147.369 5.81818C147.369 6.20881 147.308 6.56214 147.188 6.8782C147.07 7.19425 146.9 7.47656 146.676 7.72514C146.456 7.97372 146.19 8.19389 145.877 8.38565C145.565 8.58097 145.314 8.78693 145.126 9.00355C144.938 9.21662 144.801 9.47053 144.716 9.76527C144.631 10.06 144.585 10.4276 144.577 10.8679V10.9318H143.299ZM143.981 14.0852C143.718 14.0852 143.493 13.9911 143.304 13.8029C143.116 13.6147 143.022 13.3892 143.022 13.1264C143.022 12.8636 143.116 12.6381 143.304 12.4499C143.493 12.2617 143.718 12.1676 143.981 12.1676C144.244 12.1676 144.469 12.2617 144.657 12.4499C144.846 12.6381 144.94 12.8636 144.94 13.1264C144.94 13.3004 144.895 13.4602 144.806 13.6058C144.721 13.7514 144.606 13.8686 144.46 13.9574C144.318 14.0426 144.158 14.0852 143.981 14.0852Z" fill="black" fill-opacity="0.7"/>
<path d="M159.866 6.22834C159.824 5.79865 159.641 5.46484 159.317 5.22692C158.994 4.98899 158.556 4.87003 158.002 4.87003C157.625 4.87003 157.308 4.9233 157.048 5.02983C156.789 5.13281 156.59 5.27663 156.452 5.46129C156.317 5.64595 156.249 5.85547 156.249 6.08984C156.242 6.28516 156.283 6.45561 156.372 6.60121C156.464 6.7468 156.59 6.87287 156.75 6.9794C156.91 7.08239 157.094 7.17294 157.304 7.25107C157.513 7.32564 157.737 7.38956 157.975 7.44283L158.955 7.6772C159.431 7.78374 159.868 7.92578 160.266 8.10334C160.663 8.28089 161.008 8.49929 161.299 8.75852C161.59 9.01776 161.816 9.32315 161.975 9.67472C162.139 10.0263 162.222 10.4293 162.226 10.8839C162.222 11.5515 162.052 12.1303 161.714 12.6204C161.381 13.1069 160.898 13.4851 160.266 13.755C159.637 14.0213 158.879 14.1545 157.991 14.1545C157.11 14.1545 156.343 14.0195 155.69 13.7496C155.04 13.4798 154.532 13.0803 154.167 12.5511C153.804 12.0185 153.614 11.3597 153.597 10.5749H155.828C155.853 10.9407 155.958 11.2461 156.143 11.4911C156.331 11.7326 156.581 11.9155 156.894 12.0398C157.21 12.1605 157.567 12.2209 157.964 12.2209C158.355 12.2209 158.694 12.1641 158.982 12.0504C159.273 11.9368 159.499 11.7788 159.658 11.5763C159.818 11.3739 159.898 11.1413 159.898 10.8786C159.898 10.6335 159.825 10.4276 159.68 10.2607C159.538 10.0937 159.328 9.9517 159.051 9.83452C158.778 9.71733 158.442 9.6108 158.044 9.51491L156.857 9.21662C155.937 8.9929 155.211 8.64311 154.678 8.16726C154.145 7.69141 153.881 7.05043 153.884 6.24432C153.881 5.58381 154.056 5.00675 154.412 4.51314C154.77 4.01953 155.262 3.63423 155.887 3.35724C156.512 3.08026 157.222 2.94176 158.018 2.94176C158.827 2.94176 159.534 3.08026 160.138 3.35724C160.745 3.63423 161.217 4.01953 161.555 4.51314C161.892 5.00675 162.066 5.57848 162.077 6.22834H159.866ZM163.735 14V5.81818H166.004V14H163.735ZM164.875 4.76349C164.537 4.76349 164.248 4.65163 164.006 4.42791C163.768 4.20064 163.649 3.92898 163.649 3.61293C163.649 3.30043 163.768 3.03232 164.006 2.80859C164.248 2.58132 164.537 2.46768 164.875 2.46768C165.212 2.46768 165.5 2.58132 165.737 2.80859C165.979 3.03232 166.1 3.30043 166.1 3.61293C166.1 3.92898 165.979 4.20064 165.737 4.42791C165.5 4.65163 165.212 4.76349 164.875 4.76349ZM171.508 17.2386C170.773 17.2386 170.142 17.1374 169.617 16.935C169.095 16.7362 168.679 16.4645 168.37 16.12C168.061 15.7756 167.861 15.3885 167.768 14.9588L169.867 14.6765C169.931 14.8398 170.032 14.9925 170.171 15.1346C170.309 15.2766 170.492 15.3903 170.719 15.4755C170.95 15.5643 171.231 15.6087 171.561 15.6087C172.055 15.6087 172.461 15.4879 172.781 15.2464C173.104 15.0085 173.265 14.609 173.265 14.0479V12.5511H173.17C173.07 12.7784 172.921 12.9933 172.722 13.1957C172.523 13.3981 172.268 13.5632 171.955 13.6911C171.643 13.8189 171.27 13.8828 170.836 13.8828C170.222 13.8828 169.663 13.7408 169.159 13.4567C168.658 13.169 168.258 12.7305 167.96 12.141C167.665 11.5479 167.518 10.7987 167.518 9.89311C167.518 8.96626 167.669 8.19212 167.971 7.57067C168.273 6.94922 168.674 6.48402 169.175 6.17507C169.679 5.86612 170.231 5.71165 170.831 5.71165C171.289 5.71165 171.673 5.78977 171.982 5.94602C172.291 6.09872 172.539 6.29048 172.727 6.52131C172.919 6.74858 173.067 6.9723 173.17 7.19247H173.255V5.81818H175.508V14.0799C175.508 14.7759 175.338 15.3583 174.997 15.8271C174.656 16.2958 174.183 16.6474 173.58 16.8817C172.98 17.1197 172.289 17.2386 171.508 17.2386ZM171.556 12.1783C171.921 12.1783 172.23 12.0877 172.482 11.9066C172.738 11.7219 172.933 11.4592 173.068 11.1183C173.207 10.7738 173.276 10.3619 173.276 9.88246C173.276 9.40305 173.209 8.98757 173.074 8.63601C172.939 8.28089 172.743 8.00568 172.488 7.81037C172.232 7.61506 171.921 7.5174 171.556 7.5174C171.183 7.5174 170.868 7.61861 170.613 7.82102C170.357 8.01989 170.164 8.29687 170.032 8.65199C169.901 9.0071 169.835 9.41726 169.835 9.88246C169.835 10.3548 169.901 10.7631 170.032 11.1076C170.167 11.4485 170.361 11.7131 170.613 11.9013C170.868 12.0859 171.183 12.1783 171.556 12.1783ZM179.583 9.26989V14H177.314V5.81818H179.476V7.26172H179.572C179.753 6.78587 180.057 6.40945 180.483 6.13246C180.909 5.85192 181.426 5.71165 182.033 5.71165C182.601 5.71165 183.097 5.83594 183.519 6.08452C183.942 6.3331 184.27 6.68821 184.505 7.14986C184.739 7.60795 184.856 8.15483 184.856 8.79048V14H182.587V9.19531C182.591 8.6946 182.463 8.30398 182.204 8.02344C181.944 7.73935 181.588 7.5973 181.133 7.5973C180.828 7.5973 180.558 7.663 180.323 7.79439C180.093 7.92578 179.911 8.11754 179.78 8.36967C179.652 8.61825 179.586 8.91832 179.583 9.26989ZM196.897 3.09091H199.204V10.1754C199.204 10.9709 199.014 11.6669 198.634 12.2635C198.257 12.8601 197.73 13.3253 197.052 13.6591C196.374 13.9893 195.583 14.1545 194.681 14.1545C193.776 14.1545 192.984 13.9893 192.306 13.6591C191.627 13.3253 191.1 12.8601 190.724 12.2635C190.347 11.6669 190.159 10.9709 190.159 10.1754V3.09091H192.466V9.97834C192.466 10.3938 192.556 10.7631 192.737 11.0863C192.922 11.4094 193.181 11.6634 193.515 11.848C193.849 12.0327 194.238 12.125 194.681 12.125C195.129 12.125 195.518 12.0327 195.848 11.848C196.182 11.6634 196.439 11.4094 196.62 11.0863C196.805 10.7631 196.897 10.3938 196.897 9.97834V3.09091ZM201.059 17.0682V5.81818H203.296V7.19247H203.397C203.497 6.9723 203.641 6.74858 203.829 6.52131C204.021 6.29048 204.269 6.09872 204.574 5.94602C204.883 5.78977 205.267 5.71165 205.725 5.71165C206.322 5.71165 206.872 5.8679 207.376 6.1804C207.881 6.48935 208.284 6.95632 208.585 7.58132C208.887 8.20277 209.038 8.98224 209.038 9.91974C209.038 10.8324 208.891 11.603 208.596 12.2315C208.305 12.8565 207.907 13.3306 207.403 13.6538C206.902 13.9734 206.341 14.1332 205.72 14.1332C205.279 14.1332 204.905 14.0604 204.596 13.9148C204.29 13.7692 204.04 13.5863 203.845 13.3661C203.649 13.1424 203.5 12.9169 203.397 12.6896H203.328V17.0682H201.059ZM203.28 9.90909C203.28 10.3956 203.348 10.82 203.483 11.1822C203.617 11.5444 203.813 11.8267 204.068 12.0291C204.324 12.228 204.635 12.3274 205.001 12.3274C205.37 12.3274 205.682 12.2262 205.938 12.0238C206.194 11.8178 206.387 11.5337 206.519 11.1715C206.654 10.8058 206.721 10.3849 206.721 9.90909C206.721 9.43679 206.655 9.02131 206.524 8.66264C206.393 8.30398 206.199 8.02344 205.943 7.82102C205.688 7.61861 205.373 7.5174 205.001 7.5174C204.631 7.5174 204.319 7.61506 204.063 7.81037C203.811 8.00568 203.617 8.28267 203.483 8.64133C203.348 9 203.28 9.42259 203.28 9.90909Z" fill="black" fill-opacity="0.7"/>
</svg>
