<svg version="1.1" viewBox="0.0 0.0 877.5301837270341 719.0341207349081" fill="none" stroke="none" stroke-linecap="square" stroke-miterlimit="10" xmlns:xlink="http://www.w3.org/1999/xlink" xmlns="http://www.w3.org/2000/svg"><clipPath id="p.0"><path d="m0 0l877.5302 0l0 719.0341l-877.5302 0l0 -719.0341z" clip-rule="nonzero"/></clipPath><g clip-path="url(#p.0)"><path fill="#000000" fill-opacity="0.0" d="m0 0l877.5302 0l0 719.0341l-877.5302 0z" fill-rule="evenodd"/><path fill="#ff0000" d="m27.184975 694.4352l-5.240093 -478.811l59.416386 -134.55812l146.78838 -68.15156l312.8022 1.7450113l141.54828 62.91147l54.171265 132.80804l3.4950562 403.67432l17.475403 12.230286l24.465576 -12.230286l-1.750061 -62.911438l76.891785 0l0 66.406555l-68.15155 89.12201l-71.65167 1.7450562l-69.89661 -73.39166l-38.445923 -136.3082l-13.980286 20.97049l1.750061 174.74902l-167.76392 -1.7449951l0 -141.54828l-232.41534 -3.4951172l0 146.78839z" fill-rule="evenodd"/><path stroke="#000000" stroke-width="1.0" stroke-linejoin="round" stroke-linecap="butt" d="m27.184975 694.4352l-5.240093 -478.811l59.416386 -134.55812l146.78838 -68.15156l312.8022 1.7450113l141.54828 62.91147l54.171265 132.80804l3.4950562 403.67432l17.475403 12.230286l24.465576 -12.230286l-1.750061 -62.911438l76.891785 0l0 66.406555l-68.15155 89.12201l-71.65167 1.7450562l-69.89661 -73.39166l-38.445923 -136.3082l-13.980286 20.97049l1.750061 174.74902l-167.76392 -1.7449951l0 -141.54828l-232.41534 -3.4951172l0 146.78839z" fill-rule="evenodd"/></g></svg>