<svg width="105" height="13" viewBox="0 0 105 13" fill="none" xmlns="http://www.w3.org/2000/svg">
<path d="M0.828835 2.59801V1.27273H7.7919V2.59801H5.09446V10H3.52628V2.59801H0.828835ZM10.9719 10.1278C10.3327 10.1278 9.77876 9.98722 9.31001 9.70597C8.84126 9.42472 8.47763 9.03125 8.21911 8.52557C7.96342 8.01989 7.83558 7.42898 7.83558 6.75284C7.83558 6.0767 7.96342 5.48437 8.21911 4.97585C8.47763 4.46733 8.84126 4.07244 9.31001 3.79119C9.77876 3.50994 10.3327 3.36932 10.9719 3.36932C11.6112 3.36932 12.1651 3.50994 12.6339 3.79119C13.1026 4.07244 13.4648 4.46733 13.7205 4.97585C13.979 5.48437 14.1083 6.0767 14.1083 6.75284C14.1083 7.42898 13.979 8.01989 13.7205 8.52557C13.4648 9.03125 13.1026 9.42472 12.6339 9.70597C12.1651 9.98722 11.6112 10.1278 10.9719 10.1278ZM10.9805 8.89205C11.3271 8.89205 11.6168 8.79687 11.8498 8.60653C12.0827 8.41335 12.256 8.15483 12.3697 7.83097C12.4862 7.5071 12.5444 7.14631 12.5444 6.74858C12.5444 6.34801 12.4862 5.9858 12.3697 5.66193C12.256 5.33523 12.0827 5.07528 11.8498 4.8821C11.6168 4.68892 11.3271 4.59233 10.9805 4.59233C10.6254 4.59233 10.3299 4.68892 10.0941 4.8821C9.86115 5.07528 9.68643 5.33523 9.56996 5.66193C9.45632 5.9858 9.3995 6.34801 9.3995 6.74858C9.3995 7.14631 9.45632 7.5071 9.56996 7.83097C9.68643 8.15483 9.86115 8.41335 10.0941 8.60653C10.3299 8.79687 10.6254 8.89205 10.9805 8.89205ZM15.4176 12.4545V3.45455H16.9347V4.53693H17.0241C17.1037 4.37784 17.2159 4.20881 17.3608 4.02983C17.5057 3.84801 17.7017 3.69318 17.9489 3.56534C18.196 3.43466 18.5114 3.36932 18.8949 3.36932C19.4006 3.36932 19.8565 3.49858 20.2628 3.7571C20.6719 4.01278 20.9957 4.39205 21.2344 4.89489C21.4759 5.39489 21.5966 6.00852 21.5966 6.7358C21.5966 7.45455 21.4787 8.06534 21.2429 8.56818C21.0071 9.07102 20.6861 9.45455 20.2798 9.71875C19.8736 9.98295 19.4134 10.1151 18.8991 10.1151C18.5241 10.1151 18.2131 10.0526 17.9659 9.92756C17.7188 9.80256 17.5199 9.65199 17.3693 9.47585C17.2216 9.29687 17.1065 9.12784 17.0241 8.96875H16.9602V12.4545H15.4176ZM16.9304 6.72727C16.9304 7.15057 16.9901 7.52131 17.1094 7.83949C17.2315 8.15767 17.4063 8.40625 17.6335 8.58523C17.8636 8.76136 18.142 8.84943 18.4688 8.84943C18.8097 8.84943 19.0952 8.75852 19.3253 8.5767C19.5554 8.39205 19.7287 8.14062 19.8452 7.82244C19.9645 7.50142 20.0241 7.13636 20.0241 6.72727C20.0241 6.32102 19.9659 5.96023 19.8494 5.64489C19.733 5.32955 19.5597 5.08239 19.3295 4.90341C19.0994 4.72443 18.8125 4.63494 18.4688 4.63494C18.1392 4.63494 17.8594 4.72159 17.6293 4.89489C17.3991 5.06818 17.2244 5.31108 17.1051 5.62358C16.9886 5.93608 16.9304 6.30398 16.9304 6.72727ZM30.7053 3.67188C30.6655 3.29972 30.4979 3.00994 30.2024 2.80256C29.9098 2.59517 29.5291 2.49148 29.0604 2.49148C28.7308 2.49148 28.4482 2.54119 28.2124 2.64062C27.9766 2.74006 27.7962 2.875 27.6712 3.04545C27.5462 3.21591 27.4822 3.41051 27.4794 3.62926C27.4794 3.81108 27.5206 3.96875 27.603 4.10227C27.6882 4.2358 27.8033 4.34943 27.9482 4.44318C28.093 4.53409 28.2536 4.6108 28.4297 4.6733C28.6058 4.7358 28.7834 4.78835 28.9624 4.83097L29.7805 5.03551C30.1101 5.11222 30.4268 5.21591 30.7308 5.34659C31.0376 5.47727 31.3118 5.64205 31.5533 5.84091C31.7976 6.03977 31.9908 6.27983 32.1328 6.56108C32.2749 6.84233 32.3459 7.17187 32.3459 7.54972C32.3459 8.06108 32.2152 8.51136 31.9538 8.90057C31.6925 9.28693 31.3146 9.58949 30.8203 9.80824C30.3288 10.0241 29.7337 10.1321 29.0348 10.1321C28.3558 10.1321 27.7663 10.027 27.2663 9.81676C26.7692 9.60653 26.38 9.29972 26.0987 8.89631C25.8203 8.4929 25.6697 8.00142 25.647 7.42188H27.2024C27.2251 7.72585 27.3189 7.97869 27.4837 8.1804C27.6484 8.3821 27.8629 8.53267 28.1271 8.6321C28.3942 8.73153 28.6925 8.78125 29.022 8.78125C29.3658 8.78125 29.6669 8.73011 29.9254 8.62784C30.1868 8.52273 30.3913 8.37784 30.5391 8.19318C30.6868 8.00568 30.7621 7.78693 30.7649 7.53693C30.7621 7.30966 30.6953 7.12216 30.5646 6.97443C30.4339 6.82386 30.2507 6.69886 30.0149 6.59943C29.782 6.49716 29.5092 6.40625 29.1967 6.3267L28.2038 6.07102C27.4851 5.88636 26.9169 5.60653 26.4993 5.23153C26.0845 4.85369 25.8771 4.35227 25.8771 3.72727C25.8771 3.21307 26.0163 2.76278 26.2947 2.37642C26.576 1.99006 26.9581 1.69034 27.4411 1.47727C27.924 1.26136 28.4709 1.15341 29.0817 1.15341C29.701 1.15341 30.2436 1.26136 30.7095 1.47727C31.1783 1.69034 31.5462 1.98722 31.8132 2.3679C32.0803 2.74574 32.218 3.1804 32.2266 3.67188H30.7053ZM36.9556 3.45455V4.64773H33.1928V3.45455H36.9556ZM34.1218 1.88636H35.6644V8.03125C35.6644 8.23864 35.6957 8.39773 35.7582 8.50852C35.8235 8.61648 35.9087 8.69034 36.0138 8.73011C36.119 8.76989 36.2354 8.78977 36.3633 8.78977C36.4599 8.78977 36.5479 8.78267 36.6275 8.76847C36.7099 8.75426 36.7724 8.74148 36.815 8.73011L37.0749 9.93608C36.9925 9.96449 36.8746 9.99574 36.7212 10.0298C36.5707 10.0639 36.386 10.0838 36.1673 10.0895C35.7809 10.1009 35.4329 10.0426 35.1232 9.91477C34.8136 9.78409 34.5678 9.58239 34.386 9.30966C34.207 9.03693 34.119 8.69602 34.1218 8.28693V1.88636ZM41.0305 10.1278C40.3913 10.1278 39.8374 9.98722 39.3686 9.70597C38.8999 9.42472 38.5362 9.03125 38.2777 8.52557C38.022 8.01989 37.8942 7.42898 37.8942 6.75284C37.8942 6.0767 38.022 5.48437 38.2777 4.97585C38.5362 4.46733 38.8999 4.07244 39.3686 3.79119C39.8374 3.50994 40.3913 3.36932 41.0305 3.36932C41.6697 3.36932 42.2237 3.50994 42.6925 3.79119C43.1612 4.07244 43.5234 4.46733 43.7791 4.97585C44.0376 5.48437 44.1669 6.0767 44.1669 6.75284C44.1669 7.42898 44.0376 8.01989 43.7791 8.52557C43.5234 9.03125 43.1612 9.42472 42.6925 9.70597C42.2237 9.98722 41.6697 10.1278 41.0305 10.1278ZM41.0391 8.89205C41.3857 8.89205 41.6754 8.79687 41.9084 8.60653C42.1413 8.41335 42.3146 8.15483 42.4283 7.83097C42.5447 7.5071 42.603 7.14631 42.603 6.74858C42.603 6.34801 42.5447 5.9858 42.4283 5.66193C42.3146 5.33523 42.1413 5.07528 41.9084 4.8821C41.6754 4.68892 41.3857 4.59233 41.0391 4.59233C40.6839 4.59233 40.3885 4.68892 40.1527 4.8821C39.9197 5.07528 39.745 5.33523 39.6286 5.66193C39.5149 5.9858 39.4581 6.34801 39.4581 6.74858C39.4581 7.14631 39.5149 7.5071 39.6286 7.83097C39.745 8.15483 39.9197 8.41335 40.1527 8.60653C40.3885 8.79687 40.6839 8.89205 41.0391 8.89205ZM45.4762 10V3.45455H46.9719V4.54545H47.0401C47.1594 4.16761 47.364 3.87642 47.6538 3.67188C47.9464 3.46449 48.2802 3.3608 48.6552 3.3608C48.7404 3.3608 48.8356 3.36506 48.9407 3.37358C49.0487 3.37926 49.1381 3.3892 49.2092 3.40341V4.82244C49.1438 4.79972 49.0401 4.77983 48.8981 4.76278C48.7589 4.7429 48.6239 4.73295 48.4933 4.73295C48.212 4.73295 47.9592 4.79403 47.7347 4.91619C47.5131 5.03551 47.3384 5.2017 47.2106 5.41477C47.0827 5.62784 47.0188 5.87358 47.0188 6.15199V10H45.4762ZM50.234 10V3.45455H51.7766V10H50.234ZM51.0096 2.52557C50.7653 2.52557 50.555 2.4446 50.3789 2.28267C50.2028 2.1179 50.1147 1.92045 50.1147 1.69034C50.1147 1.45739 50.2028 1.25994 50.3789 1.09801C50.555 0.933238 50.7653 0.850852 51.0096 0.850852C51.2567 0.850852 51.467 0.933238 51.6403 1.09801C51.8164 1.25994 51.9045 1.45739 51.9045 1.69034C51.9045 1.92045 51.8164 2.1179 51.6403 2.28267C51.467 2.4446 51.2567 2.52557 51.0096 2.52557ZM56.2607 10.1278C55.6044 10.1278 55.0376 9.99148 54.5604 9.71875C54.0859 9.44318 53.7209 9.05398 53.4652 8.55114C53.2095 8.04545 53.0817 7.45028 53.0817 6.76562C53.0817 6.09233 53.2095 5.50142 53.4652 4.9929C53.7237 4.48153 54.0845 4.08381 54.5476 3.79972C55.0107 3.51278 55.5547 3.36932 56.1797 3.36932C56.5831 3.36932 56.9638 3.43466 57.3217 3.56534C57.6825 3.69318 58.0007 3.89205 58.2763 4.16193C58.5547 4.43182 58.7734 4.77557 58.9325 5.19318C59.0916 5.60795 59.1712 6.10227 59.1712 6.67614V7.14915H53.8061V6.10938H57.6925C57.6896 5.81392 57.6257 5.55114 57.5007 5.32102C57.3757 5.08807 57.201 4.90483 56.9766 4.77131C56.755 4.63778 56.4964 4.57102 56.201 4.57102C55.8857 4.57102 55.6087 4.64773 55.37 4.80114C55.1314 4.9517 54.9453 5.15057 54.8118 5.39773C54.6811 5.64205 54.6143 5.91051 54.6115 6.20312V7.1108C54.6115 7.49148 54.6811 7.81818 54.8203 8.09091C54.9595 8.3608 55.1541 8.56818 55.4041 8.71307C55.6541 8.85511 55.9467 8.92614 56.282 8.92614C56.5064 8.92614 56.7095 8.89489 56.8913 8.83239C57.0732 8.76705 57.2308 8.67188 57.3643 8.54688C57.4979 8.42188 57.5987 8.26705 57.6669 8.08239L59.1072 8.24432C59.0163 8.625 58.843 8.95739 58.5874 9.24148C58.3345 9.52273 58.0107 9.74148 57.6158 9.89773C57.2209 10.0511 56.7692 10.1278 56.2607 10.1278ZM65.6495 5.18466L64.2433 5.33807C64.2035 5.19602 64.1339 5.0625 64.0344 4.9375C63.9379 4.8125 63.8072 4.71165 63.6424 4.63494C63.4776 4.55824 63.2759 4.51989 63.0373 4.51989C62.7163 4.51989 62.4464 4.58949 62.2276 4.72869C62.0117 4.8679 61.9052 5.0483 61.908 5.26989C61.9052 5.46023 61.9748 5.61506 62.1168 5.73438C62.2617 5.85369 62.5004 5.9517 62.8327 6.02841L63.9492 6.26705C64.5685 6.40057 65.0288 6.61222 65.3299 6.90199C65.6339 7.19176 65.7873 7.57102 65.7901 8.03977C65.7873 8.4517 65.6665 8.81534 65.4279 9.13068C65.1921 9.44318 64.864 9.6875 64.4435 9.86364C64.0231 10.0398 63.5401 10.1278 62.9947 10.1278C62.1935 10.1278 61.5487 9.96023 61.06 9.625C60.5714 9.28693 60.2802 8.81676 60.1864 8.21449L61.6907 8.0696C61.7589 8.36506 61.9038 8.58807 62.1254 8.73864C62.3469 8.8892 62.6353 8.96449 62.9904 8.96449C63.3569 8.96449 63.6509 8.8892 63.8725 8.73864C64.0969 8.58807 64.2092 8.40199 64.2092 8.1804C64.2092 7.9929 64.1367 7.83807 63.9918 7.71591C63.8498 7.59375 63.6282 7.5 63.3271 7.43466L62.2106 7.20028C61.5827 7.0696 61.1183 6.84943 60.8171 6.53977C60.516 6.22727 60.3668 5.83239 60.3697 5.35511C60.3668 4.9517 60.4762 4.60227 60.6978 4.30682C60.9222 4.00852 61.2333 3.77841 61.631 3.61648C62.0316 3.4517 62.4933 3.36932 63.016 3.36932C63.783 3.36932 64.3867 3.53267 64.8271 3.85938C65.2702 4.18608 65.5444 4.62784 65.6495 5.18466ZM69.7234 2.59801V1.27273H76.6864V2.59801H73.989V10H72.4208V2.59801H69.7234ZM79.8665 10.1278C79.2273 10.1278 78.6733 9.98722 78.2045 9.70597C77.7358 9.42472 77.3722 9.03125 77.1136 8.52557C76.858 8.01989 76.7301 7.42898 76.7301 6.75284C76.7301 6.0767 76.858 5.48437 77.1136 4.97585C77.3722 4.46733 77.7358 4.07244 78.2045 3.79119C78.6733 3.50994 79.2273 3.36932 79.8665 3.36932C80.5057 3.36932 81.0597 3.50994 81.5284 3.79119C81.9972 4.07244 82.3594 4.46733 82.6151 4.97585C82.8736 5.48437 83.0028 6.0767 83.0028 6.75284C83.0028 7.42898 82.8736 8.01989 82.6151 8.52557C82.3594 9.03125 81.9972 9.42472 81.5284 9.70597C81.0597 9.98722 80.5057 10.1278 79.8665 10.1278ZM79.875 8.89205C80.2216 8.89205 80.5114 8.79687 80.7443 8.60653C80.9773 8.41335 81.1506 8.15483 81.2642 7.83097C81.3807 7.5071 81.4389 7.14631 81.4389 6.74858C81.4389 6.34801 81.3807 5.9858 81.2642 5.66193C81.1506 5.33523 80.9773 5.07528 80.7443 4.8821C80.5114 4.68892 80.2216 4.59233 79.875 4.59233C79.5199 4.59233 79.2244 4.68892 78.9886 4.8821C78.7557 5.07528 78.581 5.33523 78.4645 5.66193C78.3509 5.9858 78.294 6.34801 78.294 6.74858C78.294 7.14631 78.3509 7.5071 78.4645 7.83097C78.581 8.15483 78.7557 8.41335 78.9886 8.60653C79.2244 8.79687 79.5199 8.89205 79.875 8.89205ZM86.7411 10.1151C86.2269 10.1151 85.7667 9.98295 85.3604 9.71875C84.9542 9.45455 84.6332 9.07102 84.3974 8.56818C84.1616 8.06534 84.0437 7.45455 84.0437 6.7358C84.0437 6.00852 84.163 5.39489 84.4016 4.89489C84.6431 4.39205 84.9684 4.01278 85.3775 3.7571C85.7866 3.49858 86.2425 3.36932 86.7454 3.36932C87.1289 3.36932 87.4442 3.43466 87.6914 3.56534C87.9386 3.69318 88.1346 3.84801 88.2795 4.02983C88.4244 4.20881 88.5366 4.37784 88.6161 4.53693H88.68V1.27273H90.2269V10H88.7099V8.96875H88.6161C88.5366 9.12784 88.4215 9.29687 88.271 9.47585C88.1204 9.65199 87.9215 9.80256 87.6744 9.92756C87.4272 10.0526 87.1161 10.1151 86.7411 10.1151ZM87.1715 8.84943C87.4982 8.84943 87.7766 8.76136 88.0067 8.58523C88.2369 8.40625 88.4116 8.15767 88.5309 7.83949C88.6502 7.52131 88.7099 7.15057 88.7099 6.72727C88.7099 6.30398 88.6502 5.93608 88.5309 5.62358C88.4144 5.31108 88.2411 5.06818 88.011 4.89489C87.7837 4.72159 87.5039 4.63494 87.1715 4.63494C86.8278 4.63494 86.5408 4.72443 86.3107 4.90341C86.0806 5.08239 85.9073 5.32955 85.7908 5.64489C85.6744 5.96023 85.6161 6.32102 85.6161 6.72727C85.6161 7.13636 85.6744 7.50142 85.7908 7.82244C85.9102 8.14062 86.0849 8.39205 86.315 8.5767C86.5479 8.75852 86.8335 8.84943 87.1715 8.84943ZM93.7543 10.1321C93.3395 10.1321 92.9659 10.0582 92.6335 9.91051C92.304 9.75994 92.0426 9.53835 91.8494 9.24574C91.6591 8.95312 91.5639 8.59233 91.5639 8.16335C91.5639 7.79403 91.6321 7.48864 91.7685 7.24716C91.9048 7.00568 92.0909 6.8125 92.3267 6.66761C92.5625 6.52273 92.8281 6.41335 93.1236 6.33949C93.4219 6.26278 93.7301 6.20739 94.0483 6.1733C94.4318 6.13352 94.7429 6.09801 94.9815 6.06676C95.2202 6.03267 95.3935 5.98153 95.5014 5.91335C95.6122 5.84233 95.6676 5.73295 95.6676 5.58523V5.55966C95.6676 5.23864 95.5724 4.99006 95.3821 4.81392C95.1918 4.63778 94.9176 4.54972 94.5597 4.54972C94.1818 4.54972 93.8821 4.6321 93.6605 4.79688C93.4418 4.96165 93.294 5.15625 93.2173 5.38068L91.777 5.17614C91.8906 4.77841 92.0781 4.44602 92.3395 4.17898C92.6009 3.90909 92.9205 3.70739 93.2983 3.57386C93.6761 3.4375 94.0938 3.36932 94.5511 3.36932C94.8665 3.36932 95.1804 3.40625 95.4929 3.48011C95.8054 3.55398 96.0909 3.67614 96.3494 3.84659C96.608 4.0142 96.8153 4.2429 96.9716 4.53267C97.1307 4.82244 97.2102 5.18466 97.2102 5.61932V10H95.7273V9.10085H95.6761C95.5824 9.28267 95.4503 9.45312 95.2798 9.61222C95.1122 9.76847 94.9006 9.89489 94.6449 9.99148C94.392 10.0852 94.0952 10.1321 93.7543 10.1321ZM94.1548 8.99858C94.4645 8.99858 94.733 8.9375 94.9602 8.81534C95.1875 8.69034 95.3622 8.52557 95.4844 8.32102C95.6094 8.11648 95.6719 7.89347 95.6719 7.65199V6.88068C95.6236 6.92045 95.5412 6.95739 95.4247 6.99148C95.3111 7.02557 95.1832 7.0554 95.0412 7.08097C94.8991 7.10653 94.7585 7.12926 94.6193 7.14915C94.4801 7.16903 94.3594 7.18608 94.2571 7.20028C94.027 7.23153 93.821 7.28267 93.6392 7.35369C93.4574 7.42472 93.3139 7.52415 93.2088 7.65199C93.1037 7.77699 93.0511 7.93892 93.0511 8.13778C93.0511 8.42188 93.1548 8.63636 93.3622 8.78125C93.5696 8.92614 93.8338 8.99858 94.1548 8.99858ZM99.4858 12.4545C99.2756 12.4545 99.081 12.4375 98.902 12.4034C98.7259 12.3722 98.5852 12.3352 98.4801 12.2926L98.8381 11.0909C99.0625 11.1563 99.2628 11.1875 99.4389 11.1847C99.6151 11.1818 99.7699 11.1264 99.9034 11.0185C100.04 10.9134 100.155 10.7372 100.249 10.4901L100.381 10.1364L98.0071 3.45455H99.6435L101.152 8.39773H101.22L102.733 3.45455H104.374L101.753 10.7926C101.631 11.1392 101.469 11.4361 101.267 11.6832C101.065 11.9332 100.818 12.1236 100.526 12.2543C100.236 12.3878 99.8892 12.4545 99.4858 12.4545Z" fill="black"/>
</svg>
