<svg width="16" height="16" viewBox="0 0 16 16" fill="none" xmlns="http://www.w3.org/2000/svg">
<mask id="mask0_38_1861" style="mask-type:luminance" maskUnits="userSpaceOnUse" x="1" y="4" width="14" height="8">
<path d="M1.84817 4.6445H14.1362V11.3555H1.84817V4.6445Z" fill="white"/>
</mask>
<g mask="url(#mask0_38_1861)">
<path d="M13.9728 4.79901C13.8718 4.69767 13.7322 4.63434 13.5775 4.63434C13.4227 4.63434 13.2832 4.69701 13.182 4.79901L7.99201 10.0037L2.80201 4.79901C2.70084 4.69767 2.56068 4.63484 2.40651 4.63484C2.09768 4.63484 1.84751 4.88584 1.84751 5.19551C1.84751 5.35001 1.91001 5.49051 2.01118 5.59201L7.59651 11.192C7.69768 11.2933 7.83735 11.3565 7.99201 11.3565C8.14668 11.3565 8.28635 11.2938 8.38751 11.192L13.9728 5.59201C14.074 5.49051 14.1372 5.35051 14.1372 5.19551C14.1372 5.04034 14.0745 4.90034 13.9728 4.79901Z" fill="black"/>
</g>
</svg>
