<svg version="1.1" viewBox="0.0 0.0 903.1732283464567 720.0" fill="none" stroke="none" stroke-linecap="square" stroke-miterlimit="10" xmlns:xlink="http://www.w3.org/1999/xlink" xmlns="http://www.w3.org/2000/svg"><clipPath id="p.0"><path d="m0 0l903.1732 0l0 720.0l-903.1732 0l0 -720.0z" clip-rule="nonzero"/></clipPath><g clip-path="url(#p.0)"><path fill="#000000" fill-opacity="0.0" d="m0 0l903.1732 0l0 720.0l-903.1732 0z" fill-rule="evenodd"/><path fill="#0b5394" d="m320.62646 675.55396l22.70868 8.17157l55.634674 -50.850647l-29.521301 -19.978027l-26.113373 -52.66681l7.946411 -42.681763l32.925964 -60.838318l70.39694 -4.5417786l61.31015 -5.4485474l39.741882 -2.722992l27.247131 41.769684l26.116638 38.139923l-14.762268 39.956177l-91.9653 106.24298l71.527435 14.52948l72.66785 -80.81897l1.1337891 -41.769714l68.12604 -49.943848l-20.437805 -52.669434l10.217285 -8.171509l49.959106 68.10309l-1.1337891 77.186646l-18.166931 59.02478l-45.41742 38.139954l38.604797 16.345642l47.684937 -5.4485474l35.200134 -54.485596l5.675537 -79.00287l13.625183 -29.056335l-22.70868 -98.07153l4.541748 -26.33603l49.959106 44.497925l0 18.15924l23.842468 35.41696l9.083496 -52.669434l-19.30072 -7.26474l-49.959167 -55.392395l-2.270874 -43.585876l20.437866 -97.1647l-45.41742 -62.657166l-95.37317 -34.507553l-213.45514 53.576202l-107.864624 -2.7229614l-114.677246 -76.27724l-90.83148 -26.336037l0 -38.137306l-1.1337891 -19.071285l-29.521301 -43.58587l-35.196823 46.311466l2.2708664 29.965775l-10.220551 10.897125l-29.521301 -29.965775l-20.43782 -46.311466l-27.24714 24.517216l-2.2708683 45.404686l38.601486 46.31147l-29.51801 51.760025l-1.1370773 44.49527l-22.70869 30.872574l-2.2708693 34.507538l14.762291 20.884857l46.55117 9.080933l40.87565 -6.3553467l46.55117 -29.05899l24.979553 0l15.892807 20.884827l37.470978 46.314087l14.759003 68.10309l20.437836 58.11801l5.6755066 92.622955l-14.759003 39.95349l0 18.161865l-44.280304 51.76001l0 9.990356l96.50702 -1.8162231l-2.270874 -12.713318z" fill-rule="evenodd"/><path stroke="#000000" stroke-width="1.0" stroke-linejoin="round" stroke-linecap="butt" d="m320.62646 675.55396l22.70868 8.17157l55.634674 -50.850647l-29.521301 -19.978027l-26.113373 -52.66681l7.946411 -42.681763l32.925964 -60.838318l70.39694 -4.5417786l61.31015 -5.4485474l39.741882 -2.722992l27.247131 41.769684l26.116638 38.139923l-14.762268 39.956177l-91.9653 106.24298l71.527435 14.52948l72.66785 -80.81897l1.1337891 -41.769714l68.12604 -49.943848l-20.437805 -52.669434l10.217285 -8.171509l49.959106 68.10309l-1.1337891 77.186646l-18.166931 59.02478l-45.41742 38.139954l38.604797 16.345642l47.684937 -5.4485474l35.200134 -54.485596l5.675537 -79.00287l13.625183 -29.056335l-22.70868 -98.07153l4.541748 -26.33603l49.959106 44.497925l0 18.15924l23.842468 35.41696l9.083496 -52.669434l-19.30072 -7.26474l-49.959167 -55.392395l-2.270874 -43.585876l20.437866 -97.1647l-45.41742 -62.657166l-95.37317 -34.507553l-213.45514 53.576202l-107.864624 -2.7229614l-114.677246 -76.27724l-90.83148 -26.336037l0 -38.137306l-1.1337891 -19.071285l-29.521301 -43.58587l-35.196823 46.311466l2.2708664 29.965775l-10.220551 10.897125l-29.521301 -29.965775l-20.43782 -46.311466l-27.24714 24.517216l-2.2708683 45.404686l38.601486 46.31147l-29.51801 51.760025l-1.1370773 44.49527l-22.70869 30.872574l-2.2708693 34.507538l14.762291 20.884857l46.55117 9.080933l40.87565 -6.3553467l46.55117 -29.05899l24.979553 0l15.892807 20.884827l37.470978 46.314087l14.759003 68.10309l20.437836 58.11801l5.6755066 92.622955l-14.759003 39.95349l0 18.161865l-44.280304 51.76001l0 9.990356l96.50702 -1.8162231l-2.270874 -12.713318z" fill-rule="evenodd"/></g></svg>