<svg width="45" height="45" viewBox="0 0 45 45" fill="none" xmlns="http://www.w3.org/2000/svg">
<g clip-path="url(#clip0_38_1832)">
<path d="M49.5 -4.5H-4.5V49.5H49.5V-4.5Z" fill="white"/>
<path d="M49.5 -4.5H-4.5V49.5H49.5V-4.5Z" fill="white"/>
<mask id="mask0_38_1832" style="mask-type:luminance" maskUnits="userSpaceOnUse" x="4" y="4" width="37" height="37">
<path d="M4.63922 4.5H40.4592V40.32H4.63922V4.5Z" fill="white"/>
</mask>
<g mask="url(#mask0_38_1832)">
<path d="M35.2134 9.74578C31.8309 6.36281 27.3333 4.5 22.5492 4.5C17.7652 4.5 13.2675 6.36281 9.885 9.74578C6.50203 13.1283 4.63922 17.6264 4.63922 22.41C4.63922 27.1936 6.50203 31.6917 9.885 35.0742C13.2675 38.4572 17.7652 40.32 22.5492 40.32C27.3333 40.32 31.8309 38.4572 35.2134 35.0742C38.5959 31.6917 40.4592 27.1941 40.4592 22.41C40.4592 17.6259 38.5964 13.1283 35.2134 9.74578Z" fill="black"/>
</g>
<path d="M26.8266 13.9036C26.9667 14.0433 27.0994 14.19 27.225 14.3433C27.3506 14.4966 27.4687 14.6555 27.5789 14.82C27.6886 14.9845 27.7903 15.1542 27.8841 15.3291C27.9773 15.5039 28.0617 15.683 28.1376 15.8658C28.2136 16.0486 28.2801 16.2352 28.3378 16.4245C28.395 16.6144 28.4433 16.8061 28.4817 17.0006C28.5206 17.1947 28.5497 17.3906 28.5689 17.5875C28.5886 17.7848 28.598 17.9827 28.598 18.1805C28.598 18.3787 28.5886 18.5761 28.5689 18.7734C28.5497 18.9708 28.5206 19.1662 28.4817 19.3608C28.4433 19.5548 28.395 19.747 28.3378 19.9364C28.2801 20.1262 28.2136 20.3123 28.1376 20.4952C28.0617 20.6784 27.9773 20.857 27.8841 21.0319C27.7903 21.2067 27.6886 21.3764 27.5789 21.5409C27.4687 21.7059 27.3506 21.8648 27.225 22.0181C27.0994 22.1709 26.9667 22.3177 26.8266 22.4578C26.6864 22.598 26.5397 22.7306 26.3869 22.8562C26.2336 22.9819 26.0747 23.1 25.9097 23.2102C25.7451 23.3198 25.5755 23.4216 25.4006 23.5153C25.2258 23.6086 25.0472 23.693 24.8639 23.7689C24.6811 23.8448 24.495 23.9114 24.3051 23.9691C24.1158 24.0262 23.9236 24.0745 23.7295 24.113C23.535 24.1519 23.3395 24.1809 23.1422 24.2002C22.9448 24.2198 22.7475 24.2292 22.5492 24.2292C22.3514 24.2292 22.1536 24.2198 21.9562 24.2002C21.7594 24.1809 21.5634 24.1519 21.3694 24.113C21.1748 24.0745 20.9831 24.0262 20.7933 23.9691C20.6039 23.9114 20.4173 23.8448 20.2345 23.7689C20.0517 23.693 19.8726 23.6086 19.6978 23.5153C19.5234 23.4216 19.3533 23.3198 19.1887 23.2102C19.0242 23.1 18.8653 22.9819 18.712 22.8562C18.5587 22.7306 18.412 22.598 18.2723 22.4578C18.1322 22.3177 17.9991 22.1709 17.8734 22.0181C17.7478 21.8648 17.6301 21.7059 17.52 21.5409C17.4098 21.3764 17.3081 21.2067 17.2148 21.0319C17.1216 20.857 17.0367 20.6784 16.9608 20.4952C16.8853 20.3123 16.8183 20.1262 16.7611 19.9364C16.7034 19.747 16.6551 19.5548 16.6167 19.3608C16.5783 19.1662 16.5492 18.9708 16.5295 18.7734C16.5103 18.5761 16.5005 18.3787 16.5005 18.1805C16.5005 17.9827 16.5103 17.7848 16.5295 17.5875C16.5492 17.3906 16.5783 17.1947 16.6167 17.0006C16.6551 16.8061 16.7034 16.6144 16.7611 16.4245C16.8183 16.2352 16.8853 16.0486 16.9608 15.8658C17.0367 15.683 17.1216 15.5039 17.2148 15.3291C17.3081 15.1542 17.4098 14.9845 17.52 14.82C17.6301 14.6555 17.7478 14.4966 17.8734 14.3433C17.9991 14.19 18.1322 14.0433 18.2723 13.9036C18.412 13.7634 18.5587 13.6303 18.712 13.5047C18.8653 13.3791 19.0242 13.2614 19.1887 13.1512C19.3533 13.0411 19.5234 12.9394 19.6978 12.8461C19.8726 12.7523 20.0517 12.668 20.2345 12.592C20.4173 12.5166 20.6039 12.4495 20.7933 12.3923C20.9831 12.3347 21.1748 12.2864 21.3694 12.248C21.5634 12.2091 21.7594 12.1805 21.9562 12.1608C22.1536 12.1416 22.3514 12.1317 22.5492 12.1317C22.7475 12.1317 22.9448 12.1416 23.1422 12.1608C23.3395 12.1805 23.535 12.2091 23.7295 12.248C23.9236 12.2864 24.1158 12.3347 24.3051 12.3923C24.495 12.4495 24.6811 12.5166 24.8639 12.592C25.0472 12.668 25.2258 12.7523 25.4006 12.8461C25.5755 12.9394 25.7451 13.0411 25.9097 13.1512C26.0747 13.2614 26.2336 13.3791 26.3869 13.5047C26.5397 13.6303 26.6864 13.7634 26.8266 13.9036Z" fill="white"/>
<path d="M22.7241 26.917H22.3744C17.4323 26.917 13.2698 30.2541 12.0155 34.7977C14.8561 37.2164 18.5348 38.6789 22.5492 38.6789C26.5636 38.6789 30.2423 37.2164 33.0825 34.7977C31.8281 30.2545 27.6666 26.917 22.7236 26.917H22.7241Z" fill="white"/>
</g>
<defs>
<clipPath id="clip0_38_1832">
<rect width="45" height="45" fill="white"/>
</clipPath>
</defs>
</svg>
