<svg width="390" height="50" viewBox="0 0 390 50" fill="none" xmlns="http://www.w3.org/2000/svg">
<rect width="390" height="50" rx="15" fill="black"/>
<path d="M177.866 22.2283C177.824 21.7987 177.641 21.4648 177.317 21.2269C176.994 20.989 176.556 20.87 176.002 20.87C175.625 20.87 175.308 20.9233 175.048 21.0298C174.789 21.1328 174.59 21.2766 174.452 21.4613C174.317 21.646 174.249 21.8555 174.249 22.0898C174.242 22.2852 174.283 22.4556 174.372 22.6012C174.464 22.7468 174.59 22.8729 174.75 22.9794C174.91 23.0824 175.094 23.1729 175.304 23.2511C175.513 23.3256 175.737 23.3896 175.975 23.4428L176.955 23.6772C177.431 23.7837 177.868 23.9258 178.266 24.1033C178.663 24.2809 179.008 24.4993 179.299 24.7585C179.59 25.0178 179.816 25.3232 179.975 25.6747C180.139 26.0263 180.222 26.4293 180.226 26.8839C180.222 27.5515 180.052 28.1303 179.714 28.6204C179.381 29.1069 178.898 29.4851 178.266 29.755C177.637 30.0213 176.879 30.1545 175.991 30.1545C175.11 30.1545 174.343 30.0195 173.69 29.7496C173.04 29.4798 172.532 29.0803 172.167 28.5511C171.804 28.0185 171.614 27.3597 171.597 26.5749H173.828C173.853 26.9407 173.958 27.2461 174.143 27.4911C174.331 27.7326 174.581 27.9155 174.894 28.0398C175.21 28.1605 175.567 28.2209 175.964 28.2209C176.355 28.2209 176.694 28.1641 176.982 28.0504C177.273 27.9368 177.499 27.7788 177.658 27.5763C177.818 27.3739 177.898 27.1413 177.898 26.8786C177.898 26.6335 177.825 26.4276 177.68 26.2607C177.538 26.0937 177.328 25.9517 177.051 25.8345C176.778 25.7173 176.442 25.6108 176.044 25.5149L174.857 25.2166C173.937 24.9929 173.211 24.6431 172.678 24.1673C172.145 23.6914 171.881 23.0504 171.884 22.2443C171.881 21.5838 172.056 21.0067 172.412 20.5131C172.77 20.0195 173.262 19.6342 173.887 19.3572C174.512 19.0803 175.222 18.9418 176.018 18.9418C176.827 18.9418 177.534 19.0803 178.138 19.3572C178.745 19.6342 179.217 20.0195 179.555 20.5131C179.892 21.0067 180.066 21.5785 180.077 22.2283H177.866ZM181.735 30V21.8182H184.004V30H181.735ZM182.875 20.7635C182.537 20.7635 182.248 20.6516 182.006 20.4279C181.768 20.2006 181.649 19.929 181.649 19.6129C181.649 19.3004 181.768 19.0323 182.006 18.8086C182.248 18.5813 182.537 18.4677 182.875 18.4677C183.212 18.4677 183.5 18.5813 183.737 18.8086C183.979 19.0323 184.1 19.3004 184.1 19.6129C184.1 19.929 183.979 20.2006 183.737 20.4279C183.5 20.6516 183.212 20.7635 182.875 20.7635ZM189.508 33.2386C188.773 33.2386 188.142 33.1374 187.617 32.935C187.095 32.7362 186.679 32.4645 186.37 32.12C186.061 31.7756 185.861 31.3885 185.768 30.9588L187.867 30.6765C187.931 30.8398 188.032 30.9925 188.171 31.1346C188.309 31.2766 188.492 31.3903 188.719 31.4755C188.95 31.5643 189.231 31.6087 189.561 31.6087C190.055 31.6087 190.461 31.4879 190.781 31.2464C191.104 31.0085 191.265 30.609 191.265 30.0479V28.5511H191.17C191.07 28.7784 190.921 28.9933 190.722 29.1957C190.523 29.3981 190.268 29.5632 189.955 29.6911C189.643 29.8189 189.27 29.8828 188.836 29.8828C188.222 29.8828 187.663 29.7408 187.159 29.4567C186.658 29.169 186.258 28.7305 185.96 28.141C185.665 27.5479 185.518 26.7987 185.518 25.8931C185.518 24.9663 185.669 24.1921 185.971 23.5707C186.273 22.9492 186.674 22.484 187.175 22.1751C187.679 21.8661 188.231 21.7116 188.831 21.7116C189.289 21.7116 189.673 21.7898 189.982 21.946C190.291 22.0987 190.539 22.2905 190.727 22.5213C190.919 22.7486 191.067 22.9723 191.17 23.1925H191.255V21.8182H193.508V30.0799C193.508 30.7759 193.338 31.3583 192.997 31.8271C192.656 32.2958 192.183 32.6474 191.58 32.8817C190.98 33.1197 190.289 33.2386 189.508 33.2386ZM189.556 28.1783C189.921 28.1783 190.23 28.0877 190.482 27.9066C190.738 27.7219 190.933 27.4592 191.068 27.1183C191.207 26.7738 191.276 26.3619 191.276 25.8825C191.276 25.4031 191.209 24.9876 191.074 24.636C190.939 24.2809 190.743 24.0057 190.488 23.8104C190.232 23.6151 189.921 23.5174 189.556 23.5174C189.183 23.5174 188.868 23.6186 188.613 23.821C188.357 24.0199 188.164 24.2969 188.032 24.652C187.901 25.0071 187.835 25.4173 187.835 25.8825C187.835 26.3548 187.901 26.7631 188.032 27.1076C188.167 27.4485 188.361 27.7131 188.613 27.9013C188.868 28.0859 189.183 28.1783 189.556 28.1783ZM197.583 25.2699V30H195.314V21.8182H197.476V23.2617H197.572C197.753 22.7859 198.057 22.4094 198.483 22.1325C198.909 21.8519 199.426 21.7116 200.033 21.7116C200.601 21.7116 201.097 21.8359 201.519 22.0845C201.942 22.3331 202.27 22.6882 202.505 23.1499C202.739 23.608 202.856 24.1548 202.856 24.7905V30H200.587V25.1953C200.591 24.6946 200.463 24.304 200.204 24.0234C199.944 23.7393 199.588 23.5973 199.133 23.5973C198.828 23.5973 198.558 23.663 198.323 23.7944C198.093 23.9258 197.911 24.1175 197.78 24.3697C197.652 24.6183 197.586 24.9183 197.583 25.2699ZM208.116 30V21.8182H210.386V30H208.116ZM209.256 20.7635C208.919 20.7635 208.63 20.6516 208.388 20.4279C208.15 20.2006 208.031 19.929 208.031 19.6129C208.031 19.3004 208.15 19.0323 208.388 18.8086C208.63 18.5813 208.919 18.4677 209.256 18.4677C209.594 18.4677 209.881 18.5813 210.119 18.8086C210.361 19.0323 210.482 19.3004 210.482 19.6129C210.482 19.929 210.361 20.2006 210.119 20.4279C209.881 20.6516 209.594 20.7635 209.256 20.7635ZM214.473 25.2699V30H212.203V21.8182H214.366V23.2617H214.462C214.643 22.7859 214.947 22.4094 215.373 22.1325C215.799 21.8519 216.316 21.7116 216.923 21.7116C217.491 21.7116 217.986 21.8359 218.409 22.0845C218.832 22.3331 219.16 22.6882 219.394 23.1499C219.629 23.608 219.746 24.1548 219.746 24.7905V30H217.477V25.1953C217.48 24.6946 217.353 24.304 217.093 24.0234C216.834 23.7393 216.477 23.5973 216.023 23.5973C215.717 23.5973 215.447 23.663 215.213 23.7944C214.982 23.9258 214.801 24.1175 214.67 24.3697C214.542 24.6183 214.476 24.9183 214.473 25.2699Z" fill="white"/>
</svg>
