<svg width="390" height="50" viewBox="0 0 390 50" fill="none" xmlns="http://www.w3.org/2000/svg">
<rect x="0.5" y="0.5" width="389" height="49" rx="14.5" stroke="#010101"/>
<path d="M60.321 30V19.0909H66.9048V20.2628H61.642V23.9489H66.5639V25.1207H61.642V28.8281H66.9901V30H60.321ZM69.1154 30V21.8182H70.3299V23.0966H70.4364C70.6069 22.6598 70.8821 22.3207 71.2621 22.0792C71.642 21.8342 72.0984 21.7116 72.631 21.7116C73.1708 21.7116 73.62 21.8342 73.9787 22.0792C74.3409 22.3207 74.6232 22.6598 74.8256 23.0966H74.9109C75.1204 22.674 75.4347 22.3384 75.8537 22.0898C76.2727 21.8377 76.7752 21.7116 77.3612 21.7116C78.0927 21.7116 78.6911 21.9407 79.1562 22.3988C79.6214 22.8533 79.854 23.5618 79.854 24.5241V30H78.5969V24.5241C78.5969 23.9205 78.4318 23.489 78.1016 23.2298C77.7713 22.9705 77.3825 22.8409 76.935 22.8409C76.3597 22.8409 75.9141 23.0149 75.598 23.3629C75.282 23.7074 75.1239 24.1442 75.1239 24.6733V30H73.8455V24.3963C73.8455 23.9311 73.6946 23.5565 73.3928 23.2724C73.0909 22.9847 72.7021 22.8409 72.2262 22.8409C71.8995 22.8409 71.5941 22.9279 71.31 23.1019C71.0295 23.2759 70.8022 23.5174 70.6282 23.8263C70.4577 24.1317 70.3725 24.4851 70.3725 24.8864V30H69.1154ZM84.5602 30.1918C84.0417 30.1918 83.5712 30.0941 83.1486 29.8988C82.726 29.6999 82.3904 29.4141 82.1419 29.0412C81.8933 28.6648 81.769 28.2102 81.769 27.6776C81.769 27.2088 81.8613 26.8288 82.046 26.5376C82.2306 26.2429 82.4775 26.0121 82.7864 25.8452C83.0953 25.6783 83.4363 25.554 83.8091 25.4723C84.1855 25.3871 84.5637 25.3196 84.9437 25.2699C85.4409 25.206 85.8439 25.158 86.1529 25.1261C86.4654 25.0906 86.6926 25.032 86.8347 24.9503C86.9803 24.8686 87.0531 24.7266 87.0531 24.5241V24.4815C87.0531 23.956 86.9093 23.5476 86.6216 23.2564C86.3375 22.9652 85.9061 22.8196 85.3272 22.8196C84.7271 22.8196 84.2566 22.951 83.9157 23.2138C83.5748 23.4766 83.335 23.7571 83.1966 24.0554L82.0034 23.6293C82.2164 23.1321 82.5005 22.745 82.8556 22.468C83.2143 22.1875 83.6049 21.9922 84.0275 21.8821C84.4537 21.7685 84.8727 21.7116 85.2846 21.7116C85.5474 21.7116 85.8493 21.7436 86.1902 21.8075C86.5346 21.8679 86.8667 21.994 87.1863 22.1857C87.5094 22.3775 87.7775 22.6669 87.9906 23.054C88.2037 23.4411 88.3102 23.9595 88.3102 24.6094V30H87.0531V28.892H86.9892C86.9039 29.0696 86.7619 29.2596 86.563 29.462C86.3642 29.6644 86.0996 29.8366 85.7694 29.9787C85.4391 30.1207 85.036 30.1918 84.5602 30.1918ZM84.752 29.0625C85.2491 29.0625 85.6681 28.9648 86.0091 28.7695C86.3535 28.5742 86.6127 28.3221 86.7868 28.0131C86.9643 27.7042 87.0531 27.3793 87.0531 27.0384V25.8878C86.9998 25.9517 86.8826 26.0103 86.7015 26.0636C86.524 26.1133 86.318 26.1577 86.0836 26.1967C85.8528 26.2322 85.6273 26.2642 85.4071 26.2926C85.1905 26.3175 85.0147 26.3388 84.8798 26.3565C84.5531 26.3991 84.2477 26.4684 83.9636 26.5643C83.6831 26.6566 83.4558 26.7969 83.2818 26.9851C83.1113 27.1697 83.0261 27.4219 83.0261 27.7415C83.0261 28.1783 83.1877 28.5085 83.5108 28.7322C83.8375 28.9524 84.2512 29.0625 84.752 29.0625ZM90.6047 30V21.8182H91.8618V30H90.6047ZM91.2439 20.4545C90.9988 20.4545 90.7876 20.3711 90.61 20.2042C90.436 20.0373 90.349 19.8366 90.349 19.6023C90.349 19.3679 90.436 19.1673 90.61 19.0004C90.7876 18.8335 90.9988 18.75 91.2439 18.75C91.4889 18.75 91.6984 18.8335 91.8724 19.0004C92.05 19.1673 92.1388 19.3679 92.1388 19.6023C92.1388 19.8366 92.05 20.0373 91.8724 20.2042C91.6984 20.3711 91.4889 20.4545 91.2439 20.4545ZM95.4213 19.0909V30H94.1642V19.0909H95.4213ZM105.266 30.1705C104.528 30.1705 103.88 29.9947 103.322 29.6431C102.768 29.2915 102.335 28.7997 102.022 28.1676C101.714 27.5355 101.559 26.7969 101.559 25.9517C101.559 25.0994 101.714 24.3555 102.022 23.7198C102.335 23.0842 102.768 22.5906 103.322 22.239C103.88 21.8874 104.528 21.7116 105.266 21.7116C106.005 21.7116 106.651 21.8874 107.205 22.239C107.763 22.5906 108.196 23.0842 108.505 23.7198C108.818 24.3555 108.974 25.0994 108.974 25.9517C108.974 26.7969 108.818 27.5355 108.505 28.1676C108.196 28.7997 107.763 29.2915 107.205 29.6431C106.651 29.9947 106.005 30.1705 105.266 30.1705ZM105.266 29.0412C105.828 29.0412 106.289 28.8974 106.651 28.6097C107.014 28.3221 107.282 27.9439 107.456 27.4751C107.63 27.0064 107.717 26.4986 107.717 25.9517C107.717 25.4048 107.63 24.8952 107.456 24.4229C107.282 23.9506 107.014 23.5689 106.651 23.2777C106.289 22.9865 105.828 22.8409 105.266 22.8409C104.705 22.8409 104.244 22.9865 103.881 23.2777C103.519 23.5689 103.251 23.9506 103.077 24.4229C102.903 24.8952 102.816 25.4048 102.816 25.9517C102.816 26.4986 102.903 27.0064 103.077 27.4751C103.251 27.9439 103.519 28.3221 103.881 28.6097C104.244 28.8974 104.705 29.0412 105.266 29.0412ZM110.893 30V21.8182H112.107V23.054H112.192C112.342 22.6491 112.612 22.3207 113.002 22.0685C113.393 21.8164 113.833 21.6903 114.323 21.6903C114.415 21.6903 114.531 21.6921 114.669 21.6957C114.808 21.6992 114.913 21.7045 114.984 21.7116V22.9901C114.941 22.9794 114.843 22.9634 114.691 22.9421C114.542 22.9173 114.384 22.9048 114.217 22.9048C113.819 22.9048 113.464 22.9883 113.151 23.1552C112.842 23.3185 112.597 23.5458 112.416 23.837C112.239 24.1246 112.15 24.4531 112.15 24.8224V30H110.893ZM128.022 19.0909H129.343V26.3139C129.343 27.0597 129.167 27.7255 128.816 28.3114C128.468 28.8938 127.976 29.3537 127.34 29.6911C126.705 30.0249 125.959 30.1918 125.103 30.1918C124.247 30.1918 123.502 30.0249 122.866 29.6911C122.23 29.3537 121.737 28.8938 121.385 28.3114C121.037 27.7255 120.863 27.0597 120.863 26.3139V19.0909H122.184V26.2074C122.184 26.7401 122.301 27.2141 122.536 27.6296C122.77 28.0415 123.104 28.3665 123.537 28.6044C123.974 28.8388 124.496 28.956 125.103 28.956C125.71 28.956 126.232 28.8388 126.669 28.6044C127.106 28.3665 127.44 28.0415 127.671 27.6296C127.905 27.2141 128.022 26.7401 128.022 26.2074V19.0909ZM137.606 23.6506L136.477 23.9702C136.406 23.782 136.301 23.5991 136.163 23.4215C136.028 23.2404 135.843 23.0913 135.609 22.9741C135.374 22.8569 135.074 22.7983 134.708 22.7983C134.208 22.7983 133.79 22.9137 133.457 23.1445C133.126 23.3718 132.961 23.6612 132.961 24.0128C132.961 24.3253 133.075 24.5721 133.302 24.7532C133.529 24.9343 133.885 25.0852 134.368 25.206L135.582 25.5043C136.314 25.6818 136.859 25.9535 137.217 26.3192C137.576 26.6815 137.755 27.1484 137.755 27.7202C137.755 28.1889 137.62 28.608 137.35 28.9773C137.084 29.3466 136.711 29.6378 136.232 29.8509C135.752 30.0639 135.195 30.1705 134.559 30.1705C133.725 30.1705 133.034 29.9893 132.487 29.6271C131.94 29.2649 131.594 28.7358 131.449 28.0398L132.642 27.7415C132.755 28.1818 132.97 28.5121 133.286 28.7322C133.606 28.9524 134.023 29.0625 134.538 29.0625C135.124 29.0625 135.589 28.9382 135.934 28.6896C136.282 28.4375 136.456 28.1357 136.456 27.7841C136.456 27.5 136.356 27.2621 136.157 27.0703C135.958 26.875 135.653 26.7294 135.241 26.6335L133.877 26.3139C133.128 26.1364 132.578 25.8612 132.226 25.4883C131.878 25.1119 131.704 24.6413 131.704 24.0767C131.704 23.6151 131.834 23.2067 132.093 22.8516C132.356 22.4964 132.713 22.2177 133.164 22.0153C133.618 21.8129 134.133 21.7116 134.708 21.7116C135.518 21.7116 136.154 21.8892 136.615 22.2443C137.081 22.5994 137.411 23.0682 137.606 23.6506ZM143.078 30.1705C142.29 30.1705 141.61 29.9964 141.038 29.6484C140.47 29.2969 140.031 28.8068 139.722 28.1783C139.417 27.5462 139.264 26.8111 139.264 25.973C139.264 25.1349 139.417 24.3963 139.722 23.7571C140.031 23.1143 140.461 22.6136 141.011 22.255C141.565 21.8928 142.212 21.7116 142.95 21.7116C143.376 21.7116 143.797 21.7827 144.213 21.9247C144.628 22.0668 145.006 22.2976 145.347 22.6172C145.688 22.9332 145.96 23.3523 146.162 23.8743C146.365 24.3963 146.466 25.0391 146.466 25.8026V26.3352H140.159V25.2486H145.187C145.187 24.7869 145.095 24.375 144.91 24.0128C144.729 23.6506 144.47 23.3647 144.133 23.1552C143.799 22.9457 143.405 22.8409 142.95 22.8409C142.449 22.8409 142.016 22.9652 141.65 23.2138C141.288 23.4588 141.009 23.7784 140.814 24.1726C140.619 24.5668 140.521 24.9893 140.521 25.4403V26.1648C140.521 26.7827 140.628 27.3065 140.841 27.7362C141.057 28.1623 141.358 28.4872 141.741 28.7109C142.125 28.9311 142.57 29.0412 143.078 29.0412C143.408 29.0412 143.707 28.995 143.973 28.9027C144.243 28.8068 144.475 28.6648 144.671 28.4766C144.866 28.2848 145.017 28.0469 145.123 27.7628L146.338 28.1037C146.21 28.5156 145.995 28.8778 145.693 29.1903C145.392 29.4993 145.019 29.7408 144.575 29.9148C144.131 30.0852 143.632 30.1705 143.078 30.1705ZM148.378 30V21.8182H149.593V23.054H149.678C149.827 22.6491 150.097 22.3207 150.487 22.0685C150.878 21.8164 151.318 21.6903 151.809 21.6903C151.901 21.6903 152.016 21.6921 152.155 21.6957C152.293 21.6992 152.398 21.7045 152.469 21.7116V22.9901C152.426 22.9794 152.329 22.9634 152.176 22.9421C152.027 22.9173 151.869 22.9048 151.702 22.9048C151.304 22.9048 150.949 22.9883 150.637 23.1552C150.328 23.3185 150.083 23.5458 149.902 23.837C149.724 24.1246 149.635 24.4531 149.635 24.8224V30H148.378ZM166.999 19.0909V30H165.721L159.776 21.4347H159.669V30H158.348V19.0909H159.627L165.593 27.6776H165.699V19.0909H166.999ZM171.88 30.1918C171.361 30.1918 170.891 30.0941 170.468 29.8988C170.045 29.6999 169.71 29.4141 169.461 29.0412C169.213 28.6648 169.088 28.2102 169.088 27.6776C169.088 27.2088 169.181 26.8288 169.365 26.5376C169.55 26.2429 169.797 26.0121 170.106 25.8452C170.415 25.6783 170.756 25.554 171.128 25.4723C171.505 25.3871 171.883 25.3196 172.263 25.2699C172.76 25.206 173.163 25.158 173.472 25.1261C173.785 25.0906 174.012 25.032 174.154 24.9503C174.3 24.8686 174.372 24.7266 174.372 24.5241V24.4815C174.372 23.956 174.229 23.5476 173.941 23.2564C173.657 22.9652 173.225 22.8196 172.647 22.8196C172.046 22.8196 171.576 22.951 171.235 23.2138C170.894 23.4766 170.654 23.7571 170.516 24.0554L169.323 23.6293C169.536 23.1321 169.82 22.745 170.175 22.468C170.534 22.1875 170.924 21.9922 171.347 21.8821C171.773 21.7685 172.192 21.7116 172.604 21.7116C172.867 21.7116 173.169 21.7436 173.509 21.8075C173.854 21.8679 174.186 21.994 174.506 22.1857C174.829 22.3775 175.097 22.6669 175.31 23.054C175.523 23.4411 175.63 23.9595 175.63 24.6094V30H174.372V28.892H174.309C174.223 29.0696 174.081 29.2596 173.882 29.462C173.684 29.6644 173.419 29.8366 173.089 29.9787C172.758 30.1207 172.355 30.1918 171.88 30.1918ZM172.071 29.0625C172.568 29.0625 172.987 28.9648 173.328 28.7695C173.673 28.5742 173.932 28.3221 174.106 28.0131C174.284 27.7042 174.372 27.3793 174.372 27.0384V25.8878C174.319 25.9517 174.202 26.0103 174.021 26.0636C173.843 26.1133 173.637 26.1577 173.403 26.1967C173.172 26.2322 172.947 26.2642 172.726 26.2926C172.51 26.3175 172.334 26.3388 172.199 26.3565C171.872 26.3991 171.567 26.4684 171.283 26.5643C171.002 26.6566 170.775 26.7969 170.601 26.9851C170.431 27.1697 170.345 27.4219 170.345 27.7415C170.345 28.1783 170.507 28.5085 170.83 28.7322C171.157 28.9524 171.571 29.0625 172.071 29.0625ZM177.924 30V21.8182H179.138V23.0966H179.245C179.415 22.6598 179.691 22.3207 180.071 22.0792C180.451 21.8342 180.907 21.7116 181.44 21.7116C181.979 21.7116 182.429 21.8342 182.787 22.0792C183.15 22.3207 183.432 22.6598 183.634 23.0966H183.719C183.929 22.674 184.243 22.3384 184.662 22.0898C185.081 21.8377 185.584 21.7116 186.17 21.7116C186.901 21.7116 187.5 21.9407 187.965 22.3988C188.43 22.8533 188.663 23.5618 188.663 24.5241V30H187.406V24.5241C187.406 23.9205 187.24 23.489 186.91 23.2298C186.58 22.9705 186.191 22.8409 185.744 22.8409C185.168 22.8409 184.723 23.0149 184.407 23.3629C184.091 23.7074 183.933 24.1442 183.933 24.6733V30H182.654V24.3963C182.654 23.9311 182.503 23.5565 182.201 23.2724C181.9 22.9847 181.511 22.8409 181.035 22.8409C180.708 22.8409 180.403 22.9279 180.119 23.1019C179.838 23.2759 179.611 23.5174 179.437 23.8263C179.266 24.1317 179.181 24.4851 179.181 24.8864V30H177.924ZM194.392 30.1705C193.603 30.1705 192.923 29.9964 192.351 29.6484C191.783 29.2969 191.345 28.8068 191.036 28.1783C190.73 27.5462 190.578 26.8111 190.578 25.973C190.578 25.1349 190.73 24.3963 191.036 23.7571C191.345 23.1143 191.774 22.6136 192.325 22.255C192.879 21.8928 193.525 21.7116 194.264 21.7116C194.69 21.7116 195.111 21.7827 195.526 21.9247C195.942 22.0668 196.32 22.2976 196.661 22.6172C197.002 22.9332 197.273 23.3523 197.476 23.8743C197.678 24.3963 197.779 25.0391 197.779 25.8026V26.3352H191.472V25.2486H196.501C196.501 24.7869 196.409 24.375 196.224 24.0128C196.043 23.6506 195.784 23.3647 195.446 23.1552C195.112 22.9457 194.718 22.8409 194.264 22.8409C193.763 22.8409 193.33 22.9652 192.964 23.2138C192.602 23.4588 192.323 23.7784 192.128 24.1726C191.932 24.5668 191.835 24.9893 191.835 25.4403V26.1648C191.835 26.7827 191.941 27.3065 192.154 27.7362C192.371 28.1623 192.671 28.4872 193.055 28.7109C193.438 28.9311 193.884 29.0412 194.392 29.0412C194.722 29.0412 195.02 28.995 195.286 28.9027C195.556 28.8068 195.789 28.6648 195.984 28.4766C196.18 28.2848 196.33 28.0469 196.437 27.7628L197.651 28.1037C197.524 28.5156 197.309 28.8778 197.007 29.1903C196.705 29.4993 196.332 29.7408 195.888 29.9148C195.444 30.0852 194.945 30.1705 194.392 30.1705Z" fill="black" fill-opacity="0.7"/>
<path d="M37.8262 32.9165C35.9734 29.7149 33.0648 27.4684 29.6851 26.5157C31.3283 25.6804 32.6422 24.3161 33.4151 22.6428C34.188 20.9694 34.3748 19.0845 33.9453 17.2919C33.5159 15.4994 32.4952 13.9038 31.048 12.7623C29.6007 11.6208 27.8112 11 25.9679 11C24.1247 11 22.3352 11.6208 20.8879 12.7623C19.4407 13.9038 18.42 15.4994 17.9906 17.2919C17.5611 19.0845 17.7479 20.9694 18.5208 22.6428C19.2937 24.3161 20.6076 25.6804 22.2508 26.5157C18.8711 27.4673 15.9625 29.7137 14.1097 32.9165C14.0589 32.9965 14.0247 33.086 14.0093 33.1796C13.9939 33.2731 13.9976 33.3689 14.0202 33.461C14.0428 33.5531 14.0837 33.6397 14.1406 33.7155C14.1975 33.7914 14.2691 33.855 14.3513 33.9024C14.4334 33.9499 14.5242 33.9803 14.6183 33.9917C14.7125 34.0031 14.808 33.9954 14.899 33.969C14.9901 33.9426 15.0749 33.898 15.1483 33.8379C15.2217 33.7779 15.2822 33.7036 15.3262 33.6196C17.5773 29.7302 21.5547 27.4087 25.9679 27.4087C30.3812 27.4087 34.3586 29.7302 36.6097 33.6196C36.6537 33.7036 36.7142 33.7779 36.7876 33.8379C36.861 33.898 36.9458 33.9426 37.0369 33.969C37.1279 33.9954 37.2234 34.0031 37.3176 33.9917C37.4117 33.9803 37.5025 33.9499 37.5846 33.9024C37.6668 33.855 37.7384 33.7914 37.7953 33.7155C37.8522 33.6397 37.8932 33.5531 37.9157 33.461C37.9383 33.3689 37.942 33.2731 37.9266 33.1796C37.9112 33.086 37.877 32.9965 37.8262 32.9165ZM19.1711 19.2055C19.1711 17.8613 19.5697 16.5471 20.3166 15.4294C21.0634 14.3117 22.1249 13.4405 23.3669 12.9261C24.6089 12.4116 25.9755 12.277 27.294 12.5393C28.6124 12.8015 29.8235 13.4489 30.7741 14.3994C31.7246 15.35 32.372 16.5611 32.6342 17.8795C32.8965 19.198 32.7619 20.5646 32.2474 21.8066C31.733 23.0486 30.8618 24.1101 29.7441 24.8569C28.6264 25.6038 27.3122 26.0024 25.9679 26.0024C24.166 26.0003 22.4384 25.2835 21.1642 24.0093C19.89 22.7351 19.1732 21.0075 19.1711 19.2055Z" fill="#080808"/>
</svg>
