<svg width="280" height="100" viewBox="0 0 280 100" fill="none" xmlns="http://www.w3.org/2000/svg">
<g filter="url(#filter0_d_38_1756)">
<rect x="226" y="42" width="50" height="50" rx="15" fill="white"/>
<g clip-path="url(#clip0_38_1756)">
<path d="M261.561 77.5617H257.116V70.6004C257.116 68.9405 257.087 66.8035 254.804 66.8035C252.489 66.8035 252.135 68.6122 252.135 70.4796V77.5612H247.69V63.2461H251.957V65.2024H252.017C252.444 64.4722 253.061 63.8715 253.802 63.4643C254.544 63.0571 255.382 62.8586 256.227 62.89C260.732 62.89 261.563 65.8534 261.563 69.7086L261.561 77.5617ZM242.674 61.2894C241.25 61.2896 240.095 60.1349 240.094 58.7102C240.094 57.2856 241.249 56.1305 242.673 56.1302C244.098 56.1299 245.253 57.2846 245.253 58.7093C245.254 59.3934 244.982 60.0496 244.498 60.5335C244.015 61.0173 243.358 61.2892 242.674 61.2894ZM244.897 77.5618H240.447V63.2461H244.897V77.5617L244.897 77.5618ZM263.777 52.0021H238.214C237.005 51.9885 236.015 52.9563 236 54.1645V79.8348C236.014 81.0436 237.005 82.0124 238.213 81.9997H263.777C264.988 82.0147 265.983 81.0459 266 79.8348V54.1625C265.983 52.952 264.988 51.9842 263.777 52.0001" fill="#0A66C2"/>
</g>
<rect x="152" y="42" width="50" height="50" rx="15" fill="white"/>
<path d="M179.426 64.99L188.919 53.875H186.669L178.429 63.5256L171.844 53.875H164.25L174.206 68.47L164.25 80.125H166.5L175.204 69.9325L182.158 80.125H189.752L179.426 64.99ZM176.346 68.5975L175.337 67.1444L167.31 55.5812H170.766L177.242 64.9131L178.251 66.3663L186.671 78.4975H183.216L176.346 68.5975Z" fill="black"/>
<rect x="78" y="42" width="50" height="50" rx="15" fill="white"/>
<g clip-path="url(#clip1_38_1756)">
<path d="M118 67C118 58.7158 111.284 52 103 52C94.7158 52 88 58.7157 88 67C88 74.4869 93.4853 80.6925 100.656 81.8178V71.3359H96.8477V67H100.656V63.6953C100.656 59.9359 102.896 57.8594 106.322 57.8594C107.963 57.8594 109.68 58.1523 109.68 58.1523V61.8438H107.788C105.925 61.8438 105.344 63 105.344 64.1863V67H109.504L108.839 71.3359H105.344V81.8178C112.515 80.6925 118 74.487 118 67Z" fill="#1877F2"/>
<path d="M108.839 71.3359L109.504 67H105.344V64.1863C105.344 62.9999 105.925 61.8438 107.788 61.8438H109.68V58.1523C109.68 58.1523 107.963 57.8594 106.322 57.8594C102.896 57.8594 100.656 59.9359 100.656 63.6953V67H96.8477V71.3359H100.656V81.8178C101.432 81.9393 102.215 82.0002 103 82C103.785 82.0002 104.568 81.9393 105.344 81.8178V71.3359H108.839Z" fill="white"/>
</g>
<rect x="4" y="42" width="50" height="50" rx="15" fill="white"/>
<g clip-path="url(#clip2_38_1756)">
<path d="M24.4508 52.9867C21.4533 54.0266 18.8683 56.0002 17.0755 58.6178C15.2826 61.2354 14.3764 64.3589 14.4899 67.5296C14.6035 70.7003 15.7308 73.751 17.7064 76.2336C19.6819 78.7162 22.4015 80.4999 25.4656 81.3227C27.9498 81.9637 30.5525 81.9918 33.05 81.4047C35.3125 80.8965 37.4042 79.8095 39.1203 78.25C40.9064 76.5774 42.2029 74.4496 42.8703 72.0953C43.5955 69.5351 43.7246 66.8428 43.2477 64.225H29.2977V70.0117H37.3766C37.2151 70.9347 36.8691 71.8155 36.3593 72.6016C35.8494 73.3877 35.1862 74.0629 34.4094 74.5867C33.423 75.2395 32.3108 75.6787 31.1445 75.8758C29.9749 76.0933 28.7751 76.0933 27.6055 75.8758C26.4199 75.631 25.2984 75.1416 24.3125 74.4391C22.7285 73.3178 21.5391 71.7248 20.9141 69.8875C20.2786 68.0157 20.2786 65.9866 20.9141 64.1149C21.359 62.8029 22.0945 61.6083 23.0656 60.6203C24.177 59.4689 25.5841 58.6459 27.1324 58.2416C28.6807 57.8373 30.3105 57.8672 31.843 58.3281C33.0402 58.6955 34.1349 59.3375 35.0398 60.2031C35.9508 59.2969 36.8602 58.3883 37.768 57.4774C38.2367 56.9875 38.7477 56.5211 39.2094 56.0195C37.8278 54.734 36.2062 53.7337 34.4375 53.0758C31.2165 51.9062 27.6921 51.8748 24.4508 52.9867Z" fill="white"/>
<path d="M24.4508 52.9867C27.6919 51.874 31.2162 51.9046 34.4375 53.0734C36.2065 53.7358 37.8274 54.741 39.207 56.0312C38.7383 56.5328 38.2438 57.0016 37.7656 57.4891C36.8563 58.3969 35.9477 59.3016 35.0398 60.2031C34.1349 59.3375 33.0402 58.6954 31.843 58.3281C30.311 57.8656 28.6813 57.8339 27.1326 58.2366C25.5838 58.6393 24.1759 59.4608 23.0633 60.6109C22.0921 61.5989 21.3566 62.7935 20.9117 64.1055L16.0531 60.3437C17.7922 56.8951 20.8033 54.2571 24.4508 52.9867Z" fill="#E33629"/>
<path d="M14.7641 64.0703C15.025 62.776 15.4586 61.5226 16.0531 60.3438L20.9117 64.1148C20.2763 65.9866 20.2763 68.0157 20.9117 69.8875C19.293 71.1375 17.6734 72.3938 16.0531 73.6563C14.5652 70.6945 14.1114 67.3199 14.7641 64.0703Z" fill="#F8BD00"/>
<path d="M29.2977 64.2227H43.2477C43.7246 66.8405 43.5955 69.5328 42.8703 72.093C42.2029 74.4472 40.9064 76.575 39.1203 78.2477C37.5523 77.0242 35.9773 75.8102 34.4094 74.5867C35.1867 74.0624 35.8502 73.3865 36.3601 72.5995C36.87 71.8126 37.2157 70.9308 37.3766 70.007H29.2977C29.2953 68.0805 29.2977 66.1516 29.2977 64.2227Z" fill="#587DBD"/>
<path d="M16.0508 73.6563C17.6711 72.4063 19.2906 71.15 20.9094 69.8875C21.5356 71.7255 22.7267 73.3185 24.3125 74.4391C25.3014 75.1384 26.4254 75.6237 27.6125 75.8641C28.7822 76.0816 29.9819 76.0816 31.1516 75.8641C32.3179 75.6669 33.43 75.2278 34.4164 74.575C35.9844 75.7984 37.5594 77.0125 39.1273 78.236C37.4115 79.7962 35.3197 80.8841 33.057 81.393C30.5596 81.9801 27.9569 81.952 25.4727 81.3109C23.5079 80.7864 21.6727 79.8616 20.082 78.5945C18.3986 77.2577 17.0235 75.5733 16.0508 73.6563Z" fill="#319F43"/>
</g>
<path d="M100.526 8.54545C100.526 9.69602 100.318 10.6903 99.9023 11.5284C99.4869 12.3665 98.9169 13.0128 98.1925 13.4673C97.468 13.9219 96.6406 14.1491 95.7102 14.1491C94.7798 14.1491 93.9524 13.9219 93.228 13.4673C92.5036 13.0128 91.9336 12.3665 91.5181 11.5284C91.1026 10.6903 90.8949 9.69602 90.8949 8.54545C90.8949 7.39489 91.1026 6.40057 91.5181 5.5625C91.9336 4.72443 92.5036 4.07812 93.228 3.62358C93.9524 3.16903 94.7798 2.94176 95.7102 2.94176C96.6406 2.94176 97.468 3.16903 98.1925 3.62358C98.9169 4.07812 99.4869 4.72443 99.9023 5.5625C100.318 6.40057 100.526 7.39489 100.526 8.54545ZM99.2472 8.54545C99.2472 7.60085 99.0891 6.80362 98.7731 6.15376C98.4606 5.50391 98.0362 5.01207 97.5 4.67827C96.9673 4.34446 96.3707 4.17756 95.7102 4.17756C95.0497 4.17756 94.4513 4.34446 93.9151 4.67827C93.3825 5.01207 92.9581 5.50391 92.642 6.15376C92.3295 6.80362 92.1733 7.60085 92.1733 8.54545C92.1733 9.49006 92.3295 10.2873 92.642 10.9371C92.9581 11.587 93.3825 12.0788 93.9151 12.4126C94.4513 12.7464 95.0497 12.9134 95.7102 12.9134C96.3707 12.9134 96.9673 12.7464 97.5 12.4126C98.0362 12.0788 98.4606 11.587 98.7731 10.9371C99.0891 10.2873 99.2472 9.49006 99.2472 8.54545ZM102.576 14V5.81818H103.791V7.05398H103.876C104.025 6.64915 104.295 6.32067 104.686 6.06854C105.076 5.81641 105.517 5.69034 106.007 5.69034C106.099 5.69034 106.214 5.69212 106.353 5.69567C106.491 5.69922 106.596 5.70455 106.667 5.71165V6.99006C106.625 6.9794 106.527 6.96342 106.374 6.94212C106.225 6.91726 106.067 6.90483 105.9 6.90483C105.502 6.90483 105.147 6.98828 104.835 7.15518C104.526 7.31854 104.281 7.54581 104.1 7.837C103.922 8.12464 103.833 8.45312 103.833 8.82244V14H102.576ZM118.172 7.65057L117.042 7.97017C116.971 7.78196 116.867 7.59908 116.728 7.42152C116.593 7.24041 116.408 7.09126 116.174 6.97408C115.94 6.85689 115.64 6.7983 115.274 6.7983C114.773 6.7983 114.356 6.91371 114.022 7.14453C113.692 7.3718 113.527 7.66122 113.527 8.01278C113.527 8.32528 113.64 8.57209 113.868 8.7532C114.095 8.9343 114.45 9.08523 114.933 9.20597L116.147 9.50426C116.879 9.68182 117.424 9.95348 117.783 10.3192C118.141 10.6815 118.321 11.1484 118.321 11.7202C118.321 12.1889 118.186 12.608 117.916 12.9773C117.65 13.3466 117.277 13.6378 116.797 13.8509C116.318 14.0639 115.76 14.1705 115.125 14.1705C114.29 14.1705 113.6 13.9893 113.053 13.6271C112.506 13.2649 112.16 12.7358 112.014 12.0398L113.207 11.7415C113.321 12.1818 113.536 12.5121 113.852 12.7322C114.171 12.9524 114.589 13.0625 115.103 13.0625C115.689 13.0625 116.155 12.9382 116.499 12.6896C116.847 12.4375 117.021 12.1357 117.021 11.7841C117.021 11.5 116.922 11.2621 116.723 11.0703C116.524 10.875 116.218 10.7294 115.807 10.6335L114.443 10.3139C113.694 10.1364 113.143 9.86115 112.792 9.48828C112.444 9.11186 112.27 8.64134 112.27 8.0767C112.27 7.61506 112.399 7.20668 112.658 6.85156C112.921 6.49645 113.278 6.21768 113.729 6.01527C114.184 5.81286 114.699 5.71165 115.274 5.71165C116.084 5.71165 116.719 5.8892 117.181 6.24432C117.646 6.59943 117.976 7.06818 118.172 7.65057ZM120.213 14V5.81818H121.47V14H120.213ZM120.852 4.45455C120.607 4.45455 120.396 4.37109 120.218 4.20419C120.044 4.03729 119.957 3.83665 119.957 3.60227C119.957 3.3679 120.044 3.16726 120.218 3.00035C120.396 2.83345 120.607 2.75 120.852 2.75C121.097 2.75 121.307 2.83345 121.481 3.00035C121.658 3.16726 121.747 3.3679 121.747 3.60227C121.747 3.83665 121.658 4.03729 121.481 4.20419C121.307 4.37109 121.097 4.45455 120.852 4.45455ZM127.075 17.2386C126.468 17.2386 125.946 17.1605 125.509 17.0043C125.072 16.8516 124.708 16.6491 124.417 16.397C124.13 16.1484 123.9 15.8821 123.73 15.598L124.731 14.8949C124.845 15.044 124.989 15.2145 125.163 15.4062C125.337 15.6016 125.575 15.7702 125.877 15.9123C126.182 16.0579 126.582 16.1307 127.075 16.1307C127.736 16.1307 128.281 15.9709 128.71 15.6513C129.14 15.3317 129.355 14.831 129.355 14.1491V12.4872H129.248C129.156 12.6364 129.025 12.821 128.854 13.0412C128.687 13.2578 128.446 13.4513 128.13 13.6218C127.817 13.7887 127.395 13.8722 126.862 13.8722C126.202 13.8722 125.609 13.7159 125.083 13.4034C124.561 13.0909 124.147 12.6364 123.842 12.0398C123.54 11.4432 123.389 10.7187 123.389 9.86648C123.389 9.02841 123.536 8.29865 123.831 7.6772C124.126 7.0522 124.536 6.56925 125.062 6.22834C125.587 5.88388 126.195 5.71165 126.883 5.71165C127.416 5.71165 127.839 5.80043 128.151 5.97798C128.467 6.15199 128.709 6.35085 128.876 6.57457C129.046 6.79474 129.177 6.97585 129.27 7.1179H129.398V5.81818H130.612V14.2344C130.612 14.9375 130.452 15.5092 130.133 15.9496C129.817 16.3935 129.391 16.7184 128.854 16.9244C128.322 17.1339 127.729 17.2386 127.075 17.2386ZM127.033 12.7429C127.537 12.7429 127.963 12.6275 128.311 12.3967C128.659 12.1658 128.924 11.8338 129.105 11.4006C129.286 10.9673 129.376 10.4489 129.376 9.84517C129.376 9.25568 129.288 8.73544 129.11 8.28445C128.932 7.83345 128.67 7.48011 128.322 7.22443C127.974 6.96875 127.544 6.84091 127.033 6.84091C126.5 6.84091 126.056 6.97585 125.701 7.24574C125.349 7.51562 125.085 7.87784 124.907 8.33239C124.733 8.78693 124.646 9.29119 124.646 9.84517C124.646 10.4134 124.735 10.9158 124.913 11.3526C125.094 11.7859 125.36 12.1268 125.712 12.3754C126.067 12.6204 126.507 12.7429 127.033 12.7429ZM134.17 9.07812V14H132.913V5.81818H134.128V7.09659H134.234C134.426 6.68111 134.717 6.3473 135.108 6.09517C135.498 5.83949 136.003 5.71165 136.621 5.71165C137.175 5.71165 137.659 5.82528 138.075 6.05256C138.49 6.27628 138.813 6.61719 139.044 7.07528C139.275 7.52983 139.391 8.10511 139.391 8.80114V14H138.133V8.88636C138.133 8.24361 137.967 7.7429 137.633 7.38423C137.299 7.02202 136.841 6.84091 136.258 6.84091C135.857 6.84091 135.498 6.92791 135.182 7.10192C134.87 7.27592 134.623 7.52983 134.442 7.86364C134.261 8.19744 134.17 8.60227 134.17 9.07812ZM145.906 14V5.81818H147.164V14H145.906ZM146.546 4.45455C146.301 4.45455 146.089 4.37109 145.912 4.20419C145.738 4.03729 145.651 3.83665 145.651 3.60227C145.651 3.3679 145.738 3.16726 145.912 3.00035C146.089 2.83345 146.301 2.75 146.546 2.75C146.791 2.75 147 2.83345 147.174 3.00035C147.352 3.16726 147.441 3.3679 147.441 3.60227C147.441 3.83665 147.352 4.03729 147.174 4.20419C147 4.37109 146.791 4.45455 146.546 4.45455ZM150.723 9.07812V14H149.466V5.81818H150.68V7.09659H150.787C150.979 6.68111 151.27 6.3473 151.661 6.09517C152.051 5.83949 152.555 5.71165 153.173 5.71165C153.727 5.71165 154.212 5.82528 154.628 6.05256C155.043 6.27628 155.366 6.61719 155.597 7.07528C155.828 7.52983 155.943 8.10511 155.943 8.80114V14H154.686V8.88636C154.686 8.24361 154.519 7.7429 154.185 7.38423C153.852 7.02202 153.394 6.84091 152.811 6.84091C152.41 6.84091 152.051 6.92791 151.735 7.10192C151.423 7.27592 151.176 7.52983 150.995 7.86364C150.814 8.19744 150.723 8.60227 150.723 9.07812ZM164.611 14L161.628 3.09091H162.971L165.25 11.9759H165.357L167.679 3.09091H169.171L171.493 11.9759H171.6L173.88 3.09091H175.222L172.239 14H170.875L168.468 5.30682H168.382L165.975 14H164.611ZM176.697 14V5.81818H177.955V14H176.697ZM177.337 4.45455C177.092 4.45455 176.88 4.37109 176.703 4.20419C176.529 4.03729 176.442 3.83665 176.442 3.60227C176.442 3.3679 176.529 3.16726 176.703 3.00035C176.88 2.83345 177.092 2.75 177.337 2.75C177.582 2.75 177.791 2.83345 177.965 3.00035C178.143 3.16726 178.232 3.3679 178.232 3.60227C178.232 3.83665 178.143 4.03729 177.965 4.20419C177.791 4.37109 177.582 4.45455 177.337 4.45455ZM183.815 5.81818V6.88352H179.575V5.81818H183.815ZM180.811 3.85795H182.068V11.6562C182.068 12.0114 182.12 12.2777 182.223 12.4553C182.329 12.6293 182.464 12.7464 182.627 12.8068C182.794 12.8636 182.97 12.892 183.155 12.892C183.293 12.892 183.407 12.8849 183.496 12.8707C183.584 12.853 183.655 12.8388 183.709 12.8281L183.964 13.9574C183.879 13.9893 183.76 14.0213 183.608 14.0533C183.455 14.0888 183.261 14.1065 183.027 14.1065C182.672 14.1065 182.324 14.0302 181.983 13.8775C181.646 13.7248 181.365 13.4922 181.141 13.1797C180.921 12.8672 180.811 12.473 180.811 11.9972V3.85795ZM187.139 9.07812V14H185.882V3.09091H187.139V7.09659H187.246C187.437 6.67401 187.725 6.33842 188.109 6.08984C188.496 5.83771 189.011 5.71165 189.653 5.71165C190.211 5.71165 190.699 5.82351 191.118 6.04723C191.537 6.2674 191.862 6.60653 192.093 7.06463C192.327 7.51918 192.445 8.09801 192.445 8.80114V14H191.187V8.88636C191.187 8.23651 191.019 7.73402 190.681 7.37891C190.348 7.02024 189.884 6.84091 189.291 6.84091C188.879 6.84091 188.51 6.92791 188.183 7.10192C187.86 7.27592 187.604 7.52983 187.416 7.86364C187.231 8.19744 187.139 8.60227 187.139 9.07812Z" fill="black"/>
</g>
<defs>
<filter id="filter0_d_38_1756" x="0" y="2.75" width="280" height="97.25" filterUnits="userSpaceOnUse" color-interpolation-filters="sRGB">
<feFlood flood-opacity="0" result="BackgroundImageFix"/>
<feColorMatrix in="SourceAlpha" type="matrix" values="0 0 0 0 0 0 0 0 0 0 0 0 0 0 0 0 0 0 127 0" result="hardAlpha"/>
<feOffset dy="4"/>
<feGaussianBlur stdDeviation="2"/>
<feComposite in2="hardAlpha" operator="out"/>
<feColorMatrix type="matrix" values="0 0 0 0 0 0 0 0 0 0 0 0 0 0 0 0 0 0 0.25 0"/>
<feBlend mode="normal" in2="BackgroundImageFix" result="effect1_dropShadow_38_1756"/>
<feBlend mode="normal" in="SourceGraphic" in2="effect1_dropShadow_38_1756" result="shape"/>
</filter>
<clipPath id="clip0_38_1756">
<rect width="30" height="30" fill="white" transform="translate(236 52)"/>
</clipPath>
<clipPath id="clip1_38_1756">
<rect width="30" height="30" fill="white" transform="translate(88 52)"/>
</clipPath>
<clipPath id="clip2_38_1756">
<rect width="30" height="30" fill="white" transform="translate(14 52)"/>
</clipPath>
</defs>
</svg>
