<svg width="390" height="50" viewBox="0 0 390 50" fill="none" xmlns="http://www.w3.org/2000/svg">
<path d="M379.321 24.7469C379.294 24.6852 378.632 23.2172 377.161 21.7461C375.201 19.7859 372.725 18.75 370 18.75C367.275 18.75 364.799 19.7859 362.839 21.7461C361.368 23.2172 360.703 24.6875 360.679 24.7469C360.643 24.8268 360.625 24.9133 360.625 25.0008C360.625 25.0883 360.643 25.1748 360.679 25.2547C360.706 25.3164 361.368 26.7836 362.839 28.2547C364.799 30.2141 367.275 31.25 370 31.25C372.725 31.25 375.201 30.2141 377.161 28.2547C378.632 26.7836 379.294 25.3164 379.321 25.2547C379.357 25.1748 379.375 25.0883 379.375 25.0008C379.375 24.9133 379.357 24.8268 379.321 24.7469ZM370 30C367.595 30 365.495 29.1258 363.755 27.4023C363.042 26.6927 362.435 25.8836 361.953 25C362.435 24.1164 363.042 23.3072 363.755 22.5977C365.495 20.8742 367.595 20 370 20C372.405 20 374.505 20.8742 376.245 22.5977C376.959 23.307 377.568 24.1162 378.051 25C377.487 26.0516 375.034 30 370 30ZM370 21.25C369.258 21.25 368.533 21.4699 367.917 21.882C367.3 22.294 366.819 22.8797 366.535 23.5649C366.252 24.2502 366.177 25.0042 366.322 25.7316C366.467 26.459 366.824 27.1272 367.348 27.6517C367.873 28.1761 368.541 28.5333 369.268 28.6779C369.996 28.8226 370.75 28.7484 371.435 28.4645C372.12 28.1807 372.706 27.7001 373.118 27.0834C373.53 26.4667 373.75 25.7417 373.75 25C373.749 24.0058 373.354 23.0525 372.651 22.3495C371.947 21.6465 370.994 21.251 370 21.25ZM370 27.5C369.506 27.5 369.022 27.3534 368.611 27.0787C368.2 26.804 367.88 26.4135 367.69 25.9567C367.501 25.4999 367.452 24.9972 367.548 24.5123C367.644 24.0273 367.883 23.5819 368.232 23.2322C368.582 22.8826 369.027 22.6445 369.512 22.548C369.997 22.4516 370.5 22.5011 370.957 22.6903C371.414 22.8795 371.804 23.2 372.079 23.6111C372.353 24.0222 372.5 24.5055 372.5 25C372.5 25.663 372.237 26.2989 371.768 26.7678C371.299 27.2366 370.663 27.5 370 27.5Z" fill="black" fill-opacity="0.7"/>
<path d="M24 31.25C23.337 31.25 22.7011 30.9866 22.2322 30.5178C21.7634 30.0489 21.5 29.413 21.5 28.75C21.5 27.3625 22.6125 26.25 24 26.25C24.663 26.25 25.2989 26.5134 25.7678 26.9822C26.2366 27.4511 26.5 28.087 26.5 28.75C26.5 29.413 26.2366 30.0489 25.7678 30.5178C25.2989 30.9866 24.663 31.25 24 31.25ZM31.5 35V22.5H16.5V35H31.5ZM31.5 20C32.163 20 32.7989 20.2634 33.2678 20.7322C33.7366 21.2011 34 21.837 34 22.5V35C34 35.663 33.7366 36.2989 33.2678 36.7678C32.7989 37.2366 32.163 37.5 31.5 37.5H16.5C15.837 37.5 15.2011 37.2366 14.7322 36.7678C14.2634 36.2989 14 35.663 14 35V22.5C14 21.1125 15.1125 20 16.5 20H17.75V17.5C17.75 15.8424 18.4085 14.2527 19.5806 13.0806C20.7527 11.9085 22.3424 11.25 24 11.25C24.8208 11.25 25.6335 11.4117 26.3918 11.7258C27.1501 12.0398 27.8391 12.5002 28.4194 13.0806C28.9998 13.6609 29.4602 14.3499 29.7742 15.1082C30.0883 15.8665 30.25 16.6792 30.25 17.5V20H31.5ZM24 13.75C23.0054 13.75 22.0516 14.1451 21.3483 14.8483C20.6451 15.5516 20.25 16.5054 20.25 17.5V20H27.75V17.5C27.75 16.5054 27.3549 15.5516 26.6517 14.8483C25.9484 14.1451 24.9946 13.75 24 13.75Z" fill="black" fill-opacity="0.7"/>
<rect x="0.5" y="0.5" width="389" height="49" rx="14.5" stroke="black"/>
<path d="M60.321 30V19.0909H64.0071C64.8629 19.0909 65.5625 19.2454 66.1058 19.5543C66.6527 19.8597 67.0575 20.2734 67.3203 20.7955C67.5831 21.3175 67.7145 21.8999 67.7145 22.5426C67.7145 23.1854 67.5831 23.7695 67.3203 24.2951C67.0611 24.8207 66.6598 25.2397 66.1165 25.5522C65.5732 25.8612 64.8771 26.0156 64.0284 26.0156H61.3864V24.8438H63.9858C64.5717 24.8438 65.0423 24.7425 65.3974 24.5401C65.7525 24.3377 66.0099 24.0643 66.1697 23.7198C66.3331 23.3718 66.4148 22.9794 66.4148 22.5426C66.4148 22.1058 66.3331 21.7152 66.1697 21.3707C66.0099 21.0263 65.7507 20.7564 65.392 20.5611C65.0334 20.3622 64.5575 20.2628 63.9645 20.2628H61.642V30H60.321ZM72.0797 30.1918C71.5613 30.1918 71.0907 30.0941 70.6681 29.8988C70.2456 29.6999 69.91 29.4141 69.6614 29.0412C69.4128 28.6648 69.2885 28.2102 69.2885 27.6776C69.2885 27.2088 69.3809 26.8288 69.5655 26.5376C69.7502 26.2429 69.997 26.0121 70.3059 25.8452C70.6149 25.6783 70.9558 25.554 71.3287 25.4723C71.7051 25.3871 72.0833 25.3196 72.4632 25.2699C72.9604 25.206 73.3635 25.158 73.6724 25.1261C73.9849 25.0906 74.2122 25.032 74.3542 24.9503C74.4998 24.8686 74.5726 24.7266 74.5726 24.5241V24.4815C74.5726 23.956 74.4288 23.5476 74.1412 23.2564C73.8571 22.9652 73.4256 22.8196 72.8468 22.8196C72.2466 22.8196 71.7761 22.951 71.4352 23.2138C71.0943 23.4766 70.8546 23.7571 70.7161 24.0554L69.5229 23.6293C69.736 23.1321 70.0201 22.745 70.3752 22.468C70.7338 22.1875 71.1245 21.9922 71.5471 21.8821C71.9732 21.7685 72.3922 21.7116 72.8042 21.7116C73.0669 21.7116 73.3688 21.7436 73.7097 21.8075C74.0542 21.8679 74.3862 21.994 74.7058 22.1857C75.0289 22.3775 75.2971 22.6669 75.5101 23.054C75.7232 23.4411 75.8297 23.9595 75.8297 24.6094V30H74.5726V28.892H74.5087C74.4235 29.0696 74.2814 29.2596 74.0826 29.462C73.8837 29.6644 73.6191 29.8366 73.2889 29.9787C72.9586 30.1207 72.5556 30.1918 72.0797 30.1918ZM72.2715 29.0625C72.7686 29.0625 73.1877 28.9648 73.5286 28.7695C73.873 28.5742 74.1323 28.3221 74.3063 28.0131C74.4838 27.7042 74.5726 27.3793 74.5726 27.0384V25.8878C74.5194 25.9517 74.4022 26.0103 74.2211 26.0636C74.0435 26.1133 73.8375 26.1577 73.6032 26.1967C73.3723 26.2322 73.1468 26.2642 72.9267 26.2926C72.71 26.3175 72.5343 26.3388 72.3993 26.3565C72.0726 26.3991 71.7672 26.4684 71.4831 26.5643C71.2026 26.6566 70.9753 26.7969 70.8013 26.9851C70.6309 27.1697 70.5456 27.4219 70.5456 27.7415C70.5456 28.1783 70.7072 28.5085 71.0304 28.7322C71.3571 28.9524 71.7708 29.0625 72.2715 29.0625ZM83.9197 23.6506L82.7904 23.9702C82.7194 23.782 82.6146 23.5991 82.4761 23.4215C82.3412 23.2404 82.1565 23.0913 81.9221 22.9741C81.6878 22.8569 81.3877 22.7983 81.0219 22.7983C80.5212 22.7983 80.104 22.9137 79.7702 23.1445C79.4399 23.3718 79.2748 23.6612 79.2748 24.0128C79.2748 24.3253 79.3884 24.5721 79.6157 24.7532C79.843 24.9343 80.1981 25.0852 80.681 25.206L81.8955 25.5043C82.627 25.6818 83.1721 25.9535 83.5308 26.3192C83.8895 26.6815 84.0688 27.1484 84.0688 27.7202C84.0688 28.1889 83.9339 28.608 83.664 28.9773C83.3976 29.3466 83.0248 29.6378 82.5454 29.8509C82.066 30.0639 81.5084 30.1705 80.8728 30.1705C80.0383 30.1705 79.3476 29.9893 78.8007 29.6271C78.2538 29.2649 77.9076 28.7358 77.762 28.0398L78.9552 27.7415C79.0688 28.1818 79.2836 28.5121 79.5997 28.7322C79.9193 28.9524 80.3366 29.0625 80.8515 29.0625C81.4374 29.0625 81.9026 28.9382 82.2471 28.6896C82.5951 28.4375 82.7691 28.1357 82.7691 27.7841C82.7691 27.5 82.6697 27.2621 82.4708 27.0703C82.2719 26.875 81.9665 26.7294 81.5546 26.6335L80.191 26.3139C79.4417 26.1364 78.8912 25.8612 78.5397 25.4883C78.1917 25.1119 78.0177 24.6413 78.0177 24.0767C78.0177 23.6151 78.1473 23.2067 78.4065 22.8516C78.6693 22.4964 79.0262 22.2177 79.4772 22.0153C79.9317 21.8129 80.4466 21.7116 81.0219 21.7116C81.8316 21.7116 82.4672 21.8892 82.9289 22.2443C83.3941 22.5994 83.7243 23.0682 83.9197 23.6506ZM91.7566 23.6506L90.6273 23.9702C90.5563 23.782 90.4515 23.5991 90.313 23.4215C90.1781 23.2404 89.9934 23.0913 89.7591 22.9741C89.5247 22.8569 89.2246 22.7983 88.8588 22.7983C88.3581 22.7983 87.9409 22.9137 87.6071 23.1445C87.2768 23.3718 87.1117 23.6612 87.1117 24.0128C87.1117 24.3253 87.2253 24.5721 87.4526 24.7532C87.6799 24.9343 88.035 25.0852 88.5179 25.206L89.7324 25.5043C90.464 25.6818 91.0091 25.9535 91.3677 26.3192C91.7264 26.6815 91.9057 27.1484 91.9057 27.7202C91.9057 28.1889 91.7708 28.608 91.5009 28.9773C91.2346 29.3466 90.8617 29.6378 90.3823 29.8509C89.9029 30.0639 89.3453 30.1705 88.7097 30.1705C87.8752 30.1705 87.1845 29.9893 86.6376 29.6271C86.0907 29.2649 85.7445 28.7358 85.5989 28.0398L86.7921 27.7415C86.9057 28.1818 87.1206 28.5121 87.4366 28.7322C87.7562 28.9524 88.1735 29.0625 88.6884 29.0625C89.2743 29.0625 89.7395 28.9382 90.084 28.6896C90.432 28.4375 90.606 28.1357 90.606 27.7841C90.606 27.5 90.5066 27.2621 90.3077 27.0703C90.1088 26.875 89.8034 26.7294 89.3915 26.6335L88.0279 26.3139C87.2786 26.1364 86.7282 25.8612 86.3766 25.4883C86.0286 25.1119 85.8546 24.6413 85.8546 24.0767C85.8546 23.6151 85.9842 23.2067 86.2434 22.8516C86.5062 22.4964 86.8631 22.2177 87.3141 22.0153C87.7686 21.8129 88.2836 21.7116 88.8588 21.7116C89.6685 21.7116 90.3042 21.8892 90.7658 22.2443C91.231 22.5994 91.5613 23.0682 91.7566 23.6506ZM95.6517 30L93.1588 21.8182H94.4798L96.2483 28.0824H96.3335L98.0807 21.8182H99.423L101.149 28.0611H101.234L103.003 21.8182H104.324L101.831 30H100.595L98.8051 23.7145H98.6773L96.8875 30H95.6517ZM109.031 30.1705C108.292 30.1705 107.644 29.9947 107.087 29.6431C106.533 29.2915 106.1 28.7997 105.787 28.1676C105.478 27.5355 105.324 26.7969 105.324 25.9517C105.324 25.0994 105.478 24.3555 105.787 23.7198C106.1 23.0842 106.533 22.5906 107.087 22.239C107.644 21.8874 108.292 21.7116 109.031 21.7116C109.77 21.7116 110.416 21.8874 110.97 22.239C111.528 22.5906 111.961 23.0842 112.27 23.7198C112.582 24.3555 112.738 25.0994 112.738 25.9517C112.738 26.7969 112.582 27.5355 112.27 28.1676C111.961 28.7997 111.528 29.2915 110.97 29.6431C110.416 29.9947 109.77 30.1705 109.031 30.1705ZM109.031 29.0412C109.592 29.0412 110.054 28.8974 110.416 28.6097C110.778 28.3221 111.046 27.9439 111.22 27.4751C111.394 27.0064 111.481 26.4986 111.481 25.9517C111.481 25.4048 111.394 24.8952 111.22 24.4229C111.046 23.9506 110.778 23.5689 110.416 23.2777C110.054 22.9865 109.592 22.8409 109.031 22.8409C108.47 22.8409 108.008 22.9865 107.646 23.2777C107.284 23.5689 107.016 23.9506 106.842 24.4229C106.668 24.8952 106.581 25.4048 106.581 25.9517C106.581 26.4986 106.668 27.0064 106.842 27.4751C107.016 27.9439 107.284 28.3221 107.646 28.6097C108.008 28.8974 108.47 29.0412 109.031 29.0412ZM114.657 30V21.8182H115.872V23.054H115.957C116.106 22.6491 116.376 22.3207 116.767 22.0685C117.157 21.8164 117.598 21.6903 118.088 21.6903C118.18 21.6903 118.296 21.6921 118.434 21.6957C118.573 21.6992 118.677 21.7045 118.748 21.7116V22.9901C118.706 22.9794 118.608 22.9634 118.455 22.9421C118.306 22.9173 118.148 22.9048 117.981 22.9048C117.584 22.9048 117.228 22.9883 116.916 23.1552C116.607 23.3185 116.362 23.5458 116.181 23.837C116.003 24.1246 115.915 24.4531 115.915 24.8224V30H114.657ZM123.079 30.1705C122.397 30.1705 121.795 29.9982 121.273 29.6538C120.751 29.3058 120.343 28.8157 120.048 28.1836C119.753 27.5479 119.606 26.7969 119.606 25.9304C119.606 25.071 119.753 24.3253 120.048 23.6932C120.343 23.0611 120.753 22.5728 121.278 22.2283C121.804 21.8839 122.411 21.7116 123.1 21.7116C123.633 21.7116 124.054 21.8004 124.363 21.978C124.675 22.152 124.913 22.3509 125.076 22.5746C125.243 22.7947 125.373 22.9759 125.465 23.1179H125.572V19.0909H126.829V30H125.614V28.7429H125.465C125.373 28.892 125.242 29.0803 125.071 29.3075C124.901 29.5312 124.657 29.7319 124.341 29.9094C124.025 30.0835 123.604 30.1705 123.079 30.1705ZM123.249 29.0412C123.754 29.0412 124.18 28.9098 124.528 28.647C124.876 28.3807 125.14 28.0131 125.321 27.5444C125.503 27.0721 125.593 26.527 125.593 25.9091C125.593 25.2983 125.504 24.7638 125.327 24.3058C125.149 23.8441 124.886 23.4854 124.538 23.2298C124.19 22.9705 123.761 22.8409 123.249 22.8409C122.717 22.8409 122.273 22.9776 121.918 23.2511C121.566 23.521 121.302 23.8885 121.124 24.3537C120.95 24.8153 120.863 25.3338 120.863 25.9091C120.863 26.4915 120.952 27.0206 121.129 27.4964C121.31 27.9687 121.577 28.3452 121.928 28.6257C122.283 28.9027 122.724 29.0412 123.249 29.0412Z" fill="black" fill-opacity="0.7"/>
</svg>
